<svg width="140" height="63" viewBox="0 0 140 63" fill="none" xmlns="http://www.w3.org/2000/svg">
<path d="M62.0882 31.0131C62.0882 45.3655 52.3392 57.4405 39.1014 60.9773C38.3106 61.1886 37.5071 61.3694 36.692 61.5185C34.8706 61.8521 32.9933 62.0262 31.0751 62.0262C29.157 62.0262 27.2382 61.8484 25.398 61.5075C25.1825 61.468 24.9682 61.426 24.7545 61.3809C23.9644 61.2178 23.1852 61.0242 22.4188 60.8014C22.2075 60.7399 21.9975 60.6766 21.7881 60.6109C18.7371 59.6551 15.8882 58.2404 13.3241 56.4464C12.7945 56.0763 12.2771 55.6904 11.7724 55.288C4.63612 49.6066 0.0620117 40.8443 0.0620117 31.0131C0.0620117 13.8849 13.9469 0 31.0751 0C48.2034 0 62.0882 13.8849 62.0882 31.0131Z" fill="url(#paint0_linear_2311_3416)"/>
<path d="M40.9023 19.7531C40.8317 19.8414 40.786 19.9516 40.7775 20.0721L37.1287 19.7586L37.9779 18.6835L38.9646 18.0091L39.1558 17.8782L40.9023 19.7531Z" fill="#110C24"/>
<path d="M37.6443 17.7521V17.7418L36.4749 16.5912C36.4372 17.0618 36.4676 17.5744 36.6868 17.9372C36.6868 17.9372 37.1147 17.9694 37.6443 17.7527V17.7521Z" fill="#110C24"/>
<path d="M45.6895 17.0564C45.5641 17.5136 45.4302 17.9056 45.2914 18.2416L41.8946 19.9461C41.8885 19.926 41.8818 19.9071 41.8733 19.8883L43.0823 17.5811C43.2825 17.435 43.5029 17.3255 43.73 17.2445H43.7306C44.665 16.9103 45.6895 17.0564 45.6895 17.0564Z" fill="#110C24"/>
<path d="M20.9902 55.4622C21.0298 55.5681 21.0675 55.6728 21.1029 55.7757L23.4745 56.7058C23.3321 56.1786 23.1939 55.6636 23.0661 55.1809L20.9902 55.4622Z" fill="#110C24"/>
<path d="M37.022 24.6887L35.491 26.1607L34.9036 25.9701L35.4453 23.9229L36.7657 24.2395C36.7888 24.4215 36.8838 24.581 37.022 24.6887Z" fill="#110C24"/>
<path d="M41.7783 33.4444C41.7783 33.5083 41.7887 33.5704 41.8069 33.6282L35.182 36.6951C35.1266 36.6318 35.059 36.5807 34.9817 36.5454L37.4374 29.6002C37.5275 29.5271 37.6139 29.4529 37.6973 29.378L41.841 33.1784C41.8008 33.2587 41.7783 33.3488 41.7783 33.4444Z" fill="#110C24"/>
<path d="M37.0836 29.8704L34.7424 36.4898H34.7308C34.5592 36.4898 34.4039 36.5623 34.2944 36.6792L30.7916 34.3958C30.7953 34.3684 30.7971 34.3404 30.7971 34.3118C30.7971 34.1091 30.7064 33.9276 30.564 33.8053L32.4231 31.4147C32.5856 31.4007 32.7494 31.3855 32.9149 31.3679C32.9302 31.366 32.946 31.3648 32.9612 31.363C34.7503 31.1712 36.0895 30.5832 37.0836 29.8704Z" fill="#110C24"/>
<path d="M30.5317 43.4819C30.4861 43.477 30.4416 43.4722 30.396 43.4673H30.3954C30.231 43.4497 30.0648 43.432 29.8974 43.4143L28.1041 40.6604C28.1248 40.5922 28.1357 40.5192 28.1357 40.4443C28.1357 40.1673 27.9841 39.9256 27.7595 39.7978L29.9273 34.9443C29.9766 34.9601 30.0283 34.9705 30.0813 34.9747L30.5317 43.4819Z" fill="#110C24"/>
<path d="M29.5857 43.382C28.2927 43.2469 26.9218 43.116 25.6368 43.0594H25.6362C25.4889 43.0527 25.3434 43.0472 25.1985 43.0429L26.8853 40.9878C27.018 41.112 27.1964 41.1881 27.3924 41.1881C27.628 41.1881 27.838 41.0785 27.9744 40.9069L29.5857 43.382Z" fill="#110C24"/>
<path d="M42.0826 33.9654L40.0275 39.905C39.9319 39.841 39.8175 39.8033 39.6939 39.8033C39.5052 39.8033 39.3372 39.8903 39.2276 40.0267L35.2756 37.3348C35.3103 37.2593 35.3292 37.176 35.3292 37.0877C35.3292 37.025 35.3195 36.9647 35.3018 36.9081L41.9286 33.8406C41.9724 33.8906 42.0242 33.9326 42.0826 33.9654Z" fill="#110C24"/>
<path d="M43.1266 20.2273C43.1266 20.2273 43.6733 21.2706 44.366 22.7261L38.1209 24.0934C38.1173 24.0496 38.1093 24.0069 38.0972 23.9656L41.301 20.6808C41.3162 20.682 41.3314 20.6826 41.3473 20.6826C41.6291 20.6826 41.8629 20.4793 41.9097 20.2114L45.1361 18.5922C45.0983 18.6713 45.0606 18.7468 45.0229 18.818C44.1158 20.5292 43.1266 20.2273 43.1266 20.2273Z" fill="#110C24"/>
<path d="M41.0435 20.5955L37.9815 23.7354C37.8847 23.6094 37.7441 23.518 37.5834 23.4846L37.0374 19.9946L40.8158 20.3191C40.8603 20.4341 40.9406 20.5303 41.0435 20.5955Z" fill="#110C24"/>
<path d="M46.3985 27.4684L45.6528 28.5459C45.5718 28.5045 45.4805 28.4813 45.3831 28.4813C45.2054 28.4813 45.0453 28.5586 44.9357 28.6822L40.1321 26.5078L44.6502 23.3289C45.2443 24.6042 45.9012 26.0999 46.3985 27.4684Z" fill="#110C24"/>
<path d="M39.7574 26.2473C39.7592 26.2418 39.7598 26.2388 39.7598 26.2388L38.8887 25.2002L37.3814 26.7744L36.0775 26.3514L35.7537 26.2461L37.2512 24.8064C37.3114 24.824 37.3754 24.8332 37.4417 24.8332C37.7546 24.8332 38.0188 24.6219 38.0985 24.334L44.3997 23.0416L39.7574 26.2473Z" fill="#110C24"/>
<path d="M44.9783 29.5197L42.6353 32.9056C42.5567 32.8678 42.4691 32.8465 42.3765 32.8465C42.2304 32.8465 42.0959 32.8995 41.9918 32.9871L37.8767 29.2123C37.9479 29.1447 38.0167 29.0766 38.0825 29.0078C38.1056 28.984 38.1281 28.9603 38.1506 28.9366C39.0029 28.0326 39.44 27.1115 39.6317 26.6142L44.8127 28.8988C44.7945 28.9566 44.7847 29.0169 44.7847 29.0796C44.7847 29.2537 44.859 29.4108 44.9783 29.5197Z" fill="#110C24"/>
<path d="M37.3362 23.4773C37.0623 23.5199 36.8419 23.7257 36.7786 23.9923L35.5076 23.6873L35.513 23.6678L36.2722 20.797L36.375 20.408L36.8042 20.0805L37.3362 23.4773Z" fill="#110C24"/>
<path d="M24.1459 44.3257L24.1398 44.3208L23.9626 44.3275L23.9608 44.3293L23.9596 44.3275L22.2983 44.389L24.0722 46.5537C25.2368 45.3143 26.1133 44.2484 26.1133 44.2484L24.1507 44.3208L24.1465 44.3263L24.1459 44.3257Z" fill="#110C24"/>
<path d="M15.76 49.6357L15.7631 49.643L16.1983 49.9529C16.2568 49.8969 16.3146 49.8427 16.3694 49.791C16.5739 49.5992 16.7553 49.4355 16.9179 49.2942L15.5056 43.8064C15.4021 43.9799 15.2876 44.1333 15.1604 44.2648C13.7554 45.7227 12.4539 46.816 12.4539 46.816C12.4539 46.816 12.4448 46.8745 12.4284 46.9834C12.418 47.0504 12.4052 47.1374 12.3906 47.2403L15.7552 49.6376L15.76 49.6357Z" fill="#110C24"/>
<path d="M19.4992 38.9735C19.3191 39.1007 19.2016 39.3114 19.2016 39.5488H16.4854C16.6235 38.0841 16.7063 36.4758 16.8798 34.9467C16.9121 34.6593 16.9462 34.3915 16.9827 34.1413L19.4992 38.9735Z" fill="#110C24"/>
<path d="M15.4865 49.7453L12.3515 47.5118C12.2377 48.3123 12.052 49.7076 11.915 51.1777L15.4865 49.7459V49.7453Z" fill="#110C24"/>
<path d="M23.5537 56.9979L21.2021 56.0757C21.3233 56.4683 21.4061 56.833 21.4316 57.1556C21.459 57.4965 21.4943 57.8757 21.5339 58.2739L24.1004 59.0031C23.9202 58.3463 23.7345 57.6657 23.5543 56.9979H23.5537Z" fill="#110C24"/>
<path d="M12.7014 36.8467C13.8221 37.4835 15.4493 37.4944 15.4493 37.4944L15.5327 36.6306L13.9153 35.4253L12.7014 36.8467Z" fill="#110C24"/>
<path d="M17.605 44.7257L17.4486 48.856C17.3506 48.9328 17.2428 49.0192 17.1241 49.1184L15.6753 43.4869C15.7836 43.2562 15.8786 42.9999 15.962 42.7217C15.9778 42.6669 15.9937 42.6109 16.0089 42.5549L17.2666 43.9112C17.2306 43.9879 17.2105 44.0731 17.2105 44.1638C17.2105 44.4226 17.3749 44.6429 17.605 44.7257Z" fill="#110C24"/>
<path d="M43.5131 38.5018C41.8122 40.3676 39.8034 43.1873 39.348 45.0719C39.2311 45.5529 39.1502 46.4021 39.0942 47.4722L36.6428 49.4573C36.6446 48.725 36.6482 48.1479 36.6549 47.8083C36.6677 47.1679 36.647 46.5488 36.5715 45.996C36.5472 45.8213 36.5174 45.6545 36.4814 45.495L39.7924 40.9915C40.0755 40.9441 40.2916 40.6981 40.2916 40.4011C40.2916 40.2945 40.2636 40.1941 40.2143 40.1076L42.3144 34.0397C42.3345 34.0415 42.3552 34.0427 42.3765 34.0427H42.3838L43.5131 38.5018Z" fill="#110C24"/>
<path d="M34.3091 37.5113L31.2733 43.5598C31.2733 43.5598 31.2684 43.5598 31.2666 43.5598C31.1058 43.5434 30.9421 43.5263 30.7771 43.5087L30.3242 34.9491C30.491 34.8992 30.6298 34.7854 30.7132 34.6356L34.1678 36.888C34.1453 36.9507 34.1331 37.0176 34.1331 37.0883C34.1331 37.2538 34.2001 37.4036 34.3091 37.5119V37.5113Z" fill="#110C24"/>
<path d="M19.609 40.188L17.9386 43.5793C17.8966 43.5702 17.8534 43.5653 17.8089 43.5653C17.6586 43.5653 17.521 43.6207 17.4157 43.7132L16.0813 42.2742C16.1111 42.1487 16.1397 42.0203 16.1665 41.8882C16.2956 41.2533 16.3875 40.5435 16.4624 39.7923H19.2449C19.3095 39.967 19.4416 40.1095 19.609 40.188Z" fill="#110C24"/>
<path d="M19.2195 51.4792L22.0708 51.5151C21.7756 50.6647 21.526 50.0809 21.6551 49.4703L20.0291 46.7042C19.3315 47.5601 18.7014 48.4683 18.5803 49.0746C18.4774 49.5896 18.7781 50.4644 19.2195 51.4792Z" fill="#110C24"/>
<path d="M22.6277 48.014C22.8225 47.8277 23.0154 47.6378 23.206 47.4473L20.2408 46.4483C20.2024 46.494 20.1647 46.5396 20.127 46.5853L21.7322 49.2096C21.8704 48.8522 22.1486 48.4718 22.6283 48.014H22.6277Z" fill="#110C24"/>
<path d="M22.9608 43.1988C21.8651 43.4709 21.2679 44.0529 20.7627 44.7943C20.7365 44.8321 20.7115 44.8704 20.686 44.9088L20.7115 44.7962L18.3971 44.2714C18.4038 44.2367 18.4068 44.2002 18.4068 44.1637C18.4068 43.9652 18.31 43.7887 18.1609 43.6803L19.8495 40.2513C19.8684 40.2531 19.8873 40.2537 19.9068 40.2537C20.0383 40.2537 20.1612 40.2178 20.2665 40.1551L22.9608 43.1988Z" fill="#110C24"/>
<path d="M22.4555 52.8042C22.3617 52.4134 22.257 52.0695 22.1542 51.7596L19.3271 51.7237C19.3478 51.7712 19.3692 51.8181 19.3905 51.8655L22.6162 53.4537C22.5541 53.2084 22.4999 52.9899 22.4555 52.8036V52.8042Z" fill="#110C24"/>
<path d="M23.0033 54.9434C22.8907 54.5172 22.7866 54.1191 22.6959 53.7648L19.5505 52.2162C20.0034 53.2011 20.5221 54.2616 20.9019 55.2283L23.0039 54.9434H23.0033Z" fill="#110C24"/>
<path d="M23.3698 47.2829C23.5518 47.0985 23.7302 46.914 23.903 46.732L22.0506 44.4711C21.8163 44.7073 21.0705 45.4689 20.3279 46.3448L23.3698 47.2835V47.2829Z" fill="#110C24"/>
<path d="M24.3043 36.3494L20.493 39.1563C20.4096 39.0315 20.2872 38.9353 20.1436 38.8842L20.3749 30.6862C20.5222 30.6759 20.6756 30.6673 20.8363 30.6594C20.8454 30.6588 20.854 30.6588 20.8631 30.6582H20.8747L24.1868 35.5836C24.1308 35.6749 24.098 35.7826 24.098 35.8983C24.098 36.0785 24.1777 36.2398 24.3043 36.3494Z" fill="#110C24"/>
<path d="M29.7129 34.8275L27.5311 39.7139H27.5305C27.4855 39.7048 27.4398 39.7005 27.3923 39.7005C26.9814 39.7005 26.6484 40.0335 26.6484 40.4444C26.6484 40.5692 26.6789 40.6867 26.7337 40.7896L24.8898 43.0358C24.8155 43.034 24.74 43.0322 24.667 43.031C24.2835 43.0261 23.9389 43.0431 23.6272 43.0803C23.4897 43.0967 23.3588 43.1168 23.2334 43.1399L20.4514 39.997C20.5519 39.8746 20.6121 39.7188 20.6121 39.5489C20.6121 39.4923 20.6054 39.4382 20.5926 39.3852L24.5434 36.4766C24.5921 36.4894 24.6432 36.4961 24.6956 36.4961C24.9482 36.4961 25.1643 36.3396 25.252 36.1181L29.4974 34.5092C29.5363 34.6358 29.6124 34.746 29.7129 34.8275Z" fill="#110C24"/>
<path d="M43.5338 44.6611L44.1353 42.5829L41.7709 42.0167L40.4451 43.7383C40.4451 43.7383 42.1569 44.3604 43.5344 44.6611H43.5338Z" fill="#110C24"/>
<path d="M25.1535 31.0872L24.7073 35.2997H24.6958C24.571 35.2997 24.4553 35.3381 24.3591 35.4038L21.1638 30.6514C21.3172 30.6501 21.4725 30.6526 21.6313 30.6587C22.6778 30.7013 23.8356 30.8955 25.1535 31.0872Z" fill="#110C24"/>
<path d="M15.5604 36.3476L15.8051 33.8134C15.5153 34.5706 14.8329 35.0095 14.1055 35.264L15.5598 36.3482L15.5604 36.3476Z" fill="#110C24"/>
<path d="M32.095 31.4404L30.351 33.6837C30.2828 33.6593 30.2091 33.6465 30.1324 33.6465C29.783 33.6465 29.4963 33.9162 29.4701 34.2595L25.2917 35.8429C25.2716 35.6262 25.1359 35.4423 24.9465 35.3553L25.3946 31.1221C25.5522 31.1446 25.7111 31.1671 25.8737 31.189C27.6347 31.4289 29.6753 31.6182 32.095 31.4404Z" fill="#110C24"/>
<path d="M20.1313 30.705L19.9012 38.8433C19.8385 38.8439 19.7776 38.8525 19.7198 38.8689L17.0474 33.7378C17.0881 33.5034 17.1314 33.2861 17.1801 33.0864C17.6086 31.3016 18.3683 30.8572 20.1313 30.705Z" fill="#110C24"/>
<path d="M37.6577 17.4131L37.7223 15.7731C37.4483 15.5923 37.1117 15.445 36.7051 15.3848C36.7051 15.3848 36.5803 15.7792 36.509 16.2833L37.6577 17.4131Z" fill="#110C24"/>
<path d="M40.1516 16.8525L40.4962 17.1971L42.8386 14.8546V7.61179C43.1412 7.51013 43.3597 7.22463 43.3597 6.88739C43.3597 6.46492 43.0176 6.1228 42.5951 6.1228C42.1726 6.1228 41.8305 6.46492 41.8305 6.88739C41.8305 7.22463 42.0491 7.51013 42.3516 7.61179V14.6525L41.6284 15.3757V10.1795C41.931 10.0778 42.1495 9.79231 42.1495 9.45507C42.1495 9.0326 41.8074 8.69049 41.3849 8.69049C40.9625 8.69049 40.6203 9.0326 40.6203 9.45507C40.6203 9.79231 40.8389 10.0778 41.1414 10.1795V15.8627L40.1516 16.8525Z" fill="#110C24"/>
<path d="M42.298 18.5532L41.7118 19.6714C41.6132 19.5893 41.4859 19.54 41.3471 19.54C41.2558 19.54 41.1694 19.5613 41.0927 19.5996L39.4387 17.8251L39.8685 17.8111L41.7367 17.7515L42.298 18.5532Z" fill="#110C24"/>
<path d="M37.8926 17.634C38.1683 17.4843 38.4569 17.2615 38.718 16.9303C38.718 16.9303 38.4934 16.3959 37.9589 15.9496L37.8926 17.634Z" fill="#110C24"/>
<path d="M20.6123 45.0233C20.2519 45.5901 19.9196 46.2341 19.4545 46.8964C18.8402 47.7712 18.5572 48.0445 18.2005 48.3081C18.055 48.4153 17.8967 48.5218 17.6995 48.6667L17.8474 44.7604C18.0367 44.7482 18.2023 44.6477 18.3033 44.4998L20.6123 45.0233Z" fill="#110C24"/>
<path d="M34.7309 43.7657C34.7066 43.7669 34.6816 43.7675 34.6567 43.7694C34.0692 43.8144 33.1208 43.745 31.9818 43.6324C31.8351 43.6184 31.6848 43.6026 31.532 43.5873L34.5142 37.6454L34.5593 37.5553L34.5623 37.6618L34.7309 43.7657Z" fill="#110C24"/>
<path d="M36.6794 59.3921C36.6849 60.2632 36.6892 61.0016 36.6928 61.5184C37.5079 61.3693 38.3115 61.1885 39.1022 60.9773C39.0968 60.7545 39.0901 60.5006 39.0834 60.22L36.6794 59.3921Z" fill="#110C24"/>
<path d="M44.8341 48.9393L43.2331 51.0145L42.7522 51.6379C43.4383 51.0876 44.1657 50.3869 44.8341 49.5109V48.9393Z" fill="#110C24"/>
<path d="M24.7547 61.3808C23.9646 61.2176 23.1854 61.0241 22.419 60.8013C22.2078 60.7398 21.9977 60.6765 21.7883 60.6107C21.7098 59.9375 21.6295 59.2149 21.5601 58.5343L24.1752 59.2776C24.384 60.0397 24.5837 60.7617 24.7547 61.3808Z" fill="#110C24"/>
<path d="M12.4928 36.7163L13.6086 35.4094C12.6231 35.6486 11.7002 35.6048 11.7002 35.6048C11.8019 36.0887 12.1026 36.4485 12.4928 36.7163Z" fill="#110C24"/>
<path d="M44.5565 6.08249V14.0832L41.7874 16.8524L42.1319 17.197L47.1486 12.1803V7.21476C47.4511 7.1131 47.6697 6.8276 47.6697 6.49035C47.6697 6.06789 47.3275 5.72577 46.9051 5.72577C46.4826 5.72577 46.1405 6.06789 46.1405 6.49035C46.1405 6.8276 46.359 7.1131 46.6616 7.21476V11.9788L45.0435 13.5962V6.08249C45.3461 5.98083 45.5646 5.69533 45.5646 5.35809C45.5646 4.93562 45.2225 4.59351 44.8 4.59351C44.3776 4.59351 44.0354 4.93562 44.0354 5.35809C44.0354 5.69533 44.254 5.98083 44.5565 6.08249Z" fill="#110C24"/>
<path d="M13.5715 54.0376L11.8238 52.2899C11.7459 53.3936 11.7112 54.4656 11.7727 55.288C12.2773 55.6904 12.7948 56.0763 13.3244 56.4464C13.3006 55.7835 13.3433 54.9398 13.5709 54.0376H13.5715Z" fill="#110C24"/>
<path d="M15.7221 49.9133L11.8906 51.4497C11.887 51.4887 11.8839 51.5277 11.8803 51.5666C11.8687 51.7011 11.8578 51.8357 11.8474 51.9702L13.645 53.7678C13.6773 53.6577 13.7114 53.5469 13.7491 53.4355C14.0608 52.5217 14.5801 51.5776 15.4214 50.7211C15.6381 50.5007 15.8365 50.3035 16.0197 50.1257L15.7221 49.9139V49.9133Z" fill="#110C24"/>
<path d="M41.9333 41.8048L44.2027 42.3484L44.3726 41.7597L43.0145 40.401L41.9333 41.8048Z" fill="#110C24"/>
<path d="M44.3239 46.2377C44.193 46.6193 44.0177 47.0522 43.7852 47.5032L46.603 45.123L44.3239 46.2377Z" fill="#110C24"/>
<path d="M39.9033 51.1716V53.3411C39.9033 53.3411 40.691 53.0562 41.7527 52.3629L39.9033 51.1722V51.1716Z" fill="#110C24"/>
<path d="M44.4397 42.405L45.2 42.587L44.5694 41.9564L44.4397 42.405Z" fill="#110C24"/>
<path d="M39.5064 40.9696L36.403 45.1912C36.2204 44.58 35.9251 44.1174 35.4655 43.9001C35.3188 43.8307 35.1557 43.7868 34.9749 43.7704L34.8057 37.6811C34.9305 37.6659 35.0431 37.6117 35.132 37.532L39.1162 40.2452C39.1028 40.2945 39.0955 40.3468 39.0955 40.401C39.0955 40.6658 39.2678 40.8904 39.5064 40.9696Z" fill="#110C24"/>
<path d="M36.6478 53.0196C36.6478 53.1225 36.6484 53.226 36.649 53.3301L38.3931 54.6553L38.9909 53.8396C38.9897 53.615 38.9891 53.3904 38.9891 53.1651L36.6448 51.7242C36.646 52.1418 36.6472 52.5753 36.6484 53.0184L36.6478 53.0196Z" fill="#110C24"/>
<path d="M45.9761 29.1533C45.9791 29.1289 45.981 29.1046 45.981 29.0796C45.981 28.9347 45.9292 28.802 45.844 28.6985L46.4996 27.7507C46.5343 27.85 46.5684 27.948 46.6013 28.0454C46.6183 28.0959 46.6348 28.1464 46.6506 28.1976C46.7809 28.6048 46.8825 29.0267 46.958 29.4552C46.9671 29.5064 46.9756 29.5581 46.9842 29.6092L45.9761 29.1533Z" fill="#110C24"/>
<path d="M38.9884 52.6485C38.9903 51.0432 39.011 49.4696 39.0633 48.1474C39.0682 48.0281 39.0731 47.913 39.0779 47.7986L36.6423 49.7709C36.6423 49.8805 36.6423 49.9925 36.6423 50.1069C36.6423 50.4521 36.6423 50.8204 36.6429 51.2069C36.6429 51.2836 36.6429 51.361 36.6429 51.4383L38.9878 52.8792C38.9878 52.8019 38.9878 52.7252 38.9878 52.6478L38.9884 52.6485Z" fill="#110C24"/>
<path d="M38.9985 55.1162C38.9979 55.0335 38.9967 54.9513 38.9961 54.8685V54.8052C38.9949 54.6207 38.9937 54.4357 38.9925 54.2494L38.5864 54.8033L38.9985 55.1162Z" fill="#110C24"/>
<path d="M45.5292 42.9164L44.372 42.6394L43.7729 44.7104C44.0371 44.7621 44.2837 44.7986 44.4961 44.8132L46.0399 43.4265L45.5298 42.9164H45.5292Z" fill="#110C24"/>
<path d="M36.6501 53.637C36.6544 54.7577 36.6599 55.918 36.666 57.0113L38.2487 54.8521L36.6501 53.637Z" fill="#110C24"/>
<path d="M46.2117 43.5988L44.6533 44.9989C44.6192 45.1858 44.5511 45.509 44.4275 45.9156L47.0341 44.6409C47.0469 44.5807 47.0597 44.5204 47.0713 44.4595L46.2111 43.5994L46.2117 43.5988Z" fill="#110C24"/>
<path d="M46.3025 35.5865C45.6621 36.7236 44.5749 37.364 43.7099 38.2881L42.6221 33.9903C42.8303 33.8966 42.9745 33.6872 42.9745 33.4443C42.9745 33.2952 42.9197 33.1582 42.829 33.0541L45.1885 29.6445C45.2494 29.6658 45.3152 29.6774 45.3833 29.6774C45.6019 29.6774 45.7936 29.5599 45.8977 29.3846L47.0269 29.8959C47.1146 29.9355 47.1097 30.7098 47.1158 30.8212C47.2041 32.3857 47.086 34.1949 46.3025 35.5865Z" fill="#110C24"/>
<path d="M46.9101 45.1822L45.0771 46.8715V49.1792C45.8399 48.1036 46.504 46.7844 46.9101 45.1822Z" fill="#110C24"/>
<path d="M44.8343 48.5404V46.9358L43.4372 48.1155C42.9289 48.93 42.2215 49.7525 41.2415 50.3977L43.092 50.7977L44.8337 48.5398L44.8343 48.5404Z" fill="#110C24"/>
<path d="M39.0748 59.8791C39.0486 58.6902 39.0188 57.113 39.0018 55.4243L38.4429 54.9994L36.6685 57.4198C36.6697 57.6298 36.6709 57.8367 36.6721 58.0395C36.6739 58.3901 36.6758 58.7298 36.6776 59.053C36.6776 59.0804 36.6776 59.1072 36.6776 59.134L39.0766 59.9607C39.076 59.9333 39.0754 59.9071 39.0748 59.8791Z" fill="#110C24"/>
<path d="M40.9448 50.5836C40.6812 50.7388 40.4 50.8818 40.0986 51.0085L41.973 52.2156C41.9912 52.2034 42.0095 52.19 42.0284 52.1773L42.9275 51.0121L40.9448 50.5836Z" fill="#110C24"/>
<path d="M34.5592 37.5553L34.5139 37.6458C34.5298 37.652 34.5457 37.6575 34.5622 37.6624L34.5592 37.5553Z" fill="#FCF7FF"/>
<g clip-path="url(#clip0_2311_3416)">
<path d="M72.3402 57.5219V54.2824L78.9093 48.8018C81.0357 47.047 81.9251 45.8043 81.9251 44.1582C81.9251 42.1334 80.9296 41.0532 79.1518 41.0532C77.374 41.0532 76.2175 42.3227 76.2175 44.5627H71.8821C71.8821 40.0805 74.7359 37.1649 79.125 37.1649C83.5141 37.1649 86.3947 39.6222 86.3947 43.8881C86.3947 46.6156 84.7521 48.8286 82.2749 50.9084L79.2859 53.4195H86.5556V57.4692L72.3402 57.523V57.5219Z" fill="url(#paint1_linear_2311_3416)"/>
<path d="M97.0286 37.1638C102.224 37.1638 105.725 41.4029 105.725 47.586C105.725 53.7692 102.495 57.8727 97.0286 57.8727C91.5624 57.8727 88.332 53.7692 88.332 47.586C88.332 41.4029 91.8317 37.1638 97.0286 37.1638ZM97.0286 54.0393C99.802 54.0393 101.417 51.8789 101.417 47.586C101.417 43.2932 99.8009 40.9983 97.0286 40.9983C94.2564 40.9983 92.6396 43.1588 92.6396 47.586C92.6396 52.0133 94.2553 54.0393 97.0286 54.0393Z" fill="url(#paint2_linear_2311_3416)"/>
<path d="M107.96 57.522V54.2825L114.529 48.8019C116.656 47.0471 117.545 45.8044 117.545 44.1583C117.545 42.1335 116.55 41.0533 114.772 41.0533C112.994 41.0533 111.838 42.3229 111.838 44.5628H107.503C107.503 40.0806 110.357 37.165 114.746 37.165C119.135 37.165 122.016 39.6223 122.016 43.8883C122.016 46.6157 120.373 48.8288 117.896 50.9085L114.907 53.4197H122.177V57.4693L107.961 57.5231L107.96 57.522Z" fill="url(#paint3_linear_2311_3416)"/>
<path d="M137.55 53.9843V57.5208H133.43V53.9843H123.522V50.1509L132.11 37.5414H137.549V50.1509H139.999V53.9843H137.549H137.55ZM133.43 50.1509V42.3754L128.152 50.1509H133.43Z" fill="url(#paint4_linear_2311_3416)"/>
<path d="M80.8535 4.33839H72.4944V17.7413H80.8535C82.809 17.7413 84.58 16.9916 85.8605 15.7792C87.1422 14.5668 87.9344 12.8904 87.9344 11.0404C87.9344 7.3381 84.7644 4.33839 80.8535 4.33839ZM83.78 13.5605C83.0984 14.2059 82.362 14.4301 81.3217 14.4301L76.0767 14.3617C75.8309 14.3583 75.632 14.169 75.632 13.9359V7.95216C75.632 7.68884 75.8577 7.47481 76.1371 7.47481H81.0502C83.1375 7.47481 84.8985 9.09064 84.884 11.0662C84.8761 12.0399 84.456 12.9207 83.7811 13.5605H83.78ZM104.179 5.73796C104.179 6.61311 103.472 7.32242 102.599 7.32242H89.9804C89.1077 7.32242 88.4004 6.61311 88.4004 5.73796C88.4004 4.86281 89.1077 4.1535 89.9804 4.1535H102.599C103.472 4.1535 104.179 4.86281 104.179 5.73796ZM104.179 16.1579C104.179 17.0331 103.472 17.7424 102.599 17.7424H89.9804C89.1077 17.7424 88.4004 17.0331 88.4004 16.1579C88.4004 15.2828 89.1077 14.5735 89.9804 14.5735H102.599C103.472 14.5735 104.179 15.2828 104.179 16.1579ZM89.606 10.9474C89.606 10.0722 90.3133 9.36294 91.186 9.36294H101.393C102.266 9.36294 102.973 10.0722 102.973 10.9474C102.973 11.8225 102.266 12.5318 101.393 12.5318H91.186C90.3133 12.5318 89.606 11.8225 89.606 10.9474ZM121.441 5.73796C121.441 6.61311 120.734 7.32242 119.861 7.32242H107.243C106.37 7.32242 105.663 6.61311 105.663 5.73796C105.663 4.86281 106.37 4.1535 107.243 4.1535H119.861C120.734 4.1535 121.441 4.86281 121.441 5.73796ZM121.441 16.1579C121.441 17.0331 120.734 17.7424 119.861 17.7424H107.243C106.37 17.7424 105.663 17.0331 105.663 16.1579C105.663 15.2828 106.37 14.5735 107.243 14.5735H119.861C120.734 14.5735 121.441 15.2828 121.441 16.1579ZM106.87 10.9485C106.87 10.0734 107.577 9.36406 108.45 9.36406H118.657C119.53 9.36406 120.237 10.0734 120.237 10.9485C120.237 11.8237 119.53 12.533 118.657 12.533H108.45C107.577 12.533 106.87 11.8237 106.87 10.9485ZM136.059 13.6782L138.43 17.7435H134.748L132.656 14.1566H126.358V17.7435H123.17V11.037H133.822C134.32 11.037 134.773 10.8365 135.1 10.5126C135.428 10.1888 135.63 9.74168 135.63 9.24752C135.63 8.25919 134.821 7.45912 133.823 7.45912H123.171V4.33279H133.924C136.665 4.33279 138.886 6.53131 138.886 9.24304C138.886 10.5989 138.331 11.827 137.432 12.7156C137.036 13.1078 136.572 13.435 136.059 13.6759V13.6782ZM88.1355 19.8558V33.2642H85.1153V28.075H75.5147V33.2642H72.4944V19.8558H75.5147V25.045H85.1153V19.8558H88.1355ZM106.985 33.2642H103.334L98.1686 24.2931C98.0434 24.0757 97.7294 24.0757 97.6043 24.2931L92.4386 33.2642H88.7881L95.7662 21.1433C96.7081 19.5061 99.0636 19.5061 100.007 21.1433L106.985 33.2642ZM118.827 25.184V23.2947H109.723V30.1133H118.827V28.1646H122.528V28.224C122.528 31.1341 120.175 33.4928 117.274 33.4928H110.963C108.399 33.4928 106.322 31.4097 106.322 28.8392V24.5688C106.322 21.9982 108.399 19.9151 110.963 19.9151H117.274C120.175 19.9151 122.528 22.2739 122.528 25.184H118.827ZM139.85 33.1836L139.755 33.2642H135.653L129.874 26.3572L126.574 29.1339V33.2631H123.307V19.8546H126.574V24.8568L127.774 23.8472L130.277 21.7405L132.518 19.8546H137.6L132.375 24.2506L139.849 33.1824L139.85 33.1836Z" fill="url(#paint5_linear_2311_3416)"/>
</g>
<defs>
<linearGradient id="paint0_linear_2311_3416" x1="0.0620117" y1="31.0131" x2="62.0882" y2="31.0131" gradientUnits="userSpaceOnUse">
<stop stop-color="#8247FF"/>
<stop offset="1" stop-color="#F5C144"/>
</linearGradient>
<linearGradient id="paint1_linear_2311_3416" x1="151.488" y1="28.8302" x2="67.1799" y2="51.2123" gradientUnits="userSpaceOnUse">
<stop stop-color="#8247FF"/>
<stop offset="1" stop-color="#F5C144"/>
</linearGradient>
<linearGradient id="paint2_linear_2311_3416" x1="152.52" y1="32.7186" x2="68.2122" y2="55.1018" gradientUnits="userSpaceOnUse">
<stop stop-color="#8247FF"/>
<stop offset="1" stop-color="#F5C144"/>
</linearGradient>
<linearGradient id="paint3_linear_2311_3416" x1="153.846" y1="37.7107" x2="69.5376" y2="60.0928" gradientUnits="userSpaceOnUse">
<stop stop-color="#8247FF"/>
<stop offset="1" stop-color="#F5C144"/>
</linearGradient>
<linearGradient id="paint4_linear_2311_3416" x1="155.022" y1="42.1401" x2="70.713" y2="64.5233" gradientUnits="userSpaceOnUse">
<stop stop-color="#8247FF"/>
<stop offset="1" stop-color="#F5C144"/>
</linearGradient>
<linearGradient id="paint5_linear_2311_3416" x1="139.908" y1="4.10287" x2="56.3091" y2="42.8616" gradientUnits="userSpaceOnUse">
<stop stop-color="#8247FF"/>
<stop offset="1" stop-color="#F5C144"/>
</linearGradient>
<clipPath id="clip0_2311_3416">
<rect width="68.1181" height="53.7191" fill="white" transform="translate(71.8818 4.15356)"/>
</clipPath>
</defs>
</svg>
