<svg width="200" height="100" viewBox="0 0 234 104" fill="none" xmlns="http://www.w3.org/2000/svg">
<path d="M103.844 51.6376C103.844 75.5346 87.6114 95.6399 65.5702 101.529C64.2535 101.88 62.9156 102.182 61.5584 102.43C58.5258 102.985 55.4 103.275 52.2062 103.275C49.0124 103.275 45.8176 102.979 42.7536 102.412C42.3948 102.346 42.038 102.276 41.6822 102.201C40.3666 101.929 39.0692 101.607 37.7931 101.236C37.4414 101.133 37.0918 101.028 36.7431 100.919C31.663 99.3273 26.9195 96.9717 22.6503 93.9847C21.7685 93.3685 20.907 92.7259 20.0667 92.0559C8.1846 82.5962 0.568604 68.0068 0.568604 51.6376C0.568604 23.1186 23.6872 0 52.2062 0C80.7251 0 103.844 23.1186 103.844 51.6376Z" fill="url(#paint0_linear_1690_5550)"/>
<path d="M68.5683 32.8894C68.4507 33.0364 68.3747 33.2199 68.3605 33.4206L62.2852 32.8986L63.6991 31.1086L65.3421 29.9856L65.6604 29.7676L68.5683 32.8894Z" fill="#110C24"/>
<path d="M63.1437 29.5577V29.5405L61.1966 27.6248C61.1338 28.4083 61.1845 29.2617 61.5493 29.8658C61.5493 29.8658 62.2619 29.9195 63.1437 29.5587V29.5577Z" fill="#110C24"/>
<path d="M76.5393 28.3993C76.3305 29.1605 76.1075 29.8132 75.8764 30.3727L70.2207 33.2107C70.2105 33.1773 70.1994 33.1459 70.1852 33.1145L72.1981 29.273C72.5316 29.0297 72.8985 28.8473 73.2766 28.7125H73.2776C74.8334 28.156 76.5393 28.3993 76.5393 28.3993Z" fill="#110C24"/>
<path d="M35.4142 92.3458C35.4801 92.5221 35.5429 92.6965 35.6017 92.8678L39.5506 94.4165C39.3134 93.5388 39.0833 92.6813 38.8705 91.8775L35.4142 92.3458Z" fill="#110C24"/>
<path d="M62.1078 41.1073L59.5587 43.5581L58.5806 43.2408L59.4826 39.8322L61.6811 40.3593C61.7196 40.6623 61.8777 40.9279 62.1078 41.1073Z" fill="#110C24"/>
<path d="M70.027 55.6858C70.027 55.7922 70.0442 55.8956 70.0747 55.9919L59.0439 61.0983C58.9517 60.9928 58.8392 60.9077 58.7104 60.8489L62.7992 49.285C62.9492 49.1634 63.0931 49.0398 63.232 48.9151L70.1314 55.2428C70.0645 55.3766 70.027 55.5266 70.027 55.6858Z" fill="#110C24"/>
<path d="M62.2101 49.7349L58.3119 60.7565H58.2927C58.0068 60.7565 57.7484 60.8771 57.5659 61.0717L51.7338 57.2698C51.7399 57.2242 51.7429 57.1775 51.7429 57.1299C51.7429 56.7924 51.5919 56.4903 51.3547 56.2866L54.4502 52.3063C54.7208 52.283 54.9935 52.2576 55.2692 52.2283C55.2945 52.2252 55.3209 52.2232 55.3462 52.2201C58.3251 51.9009 60.555 50.9218 62.2101 49.7349Z" fill="#110C24"/>
<path d="M51.3011 72.3985C51.2251 72.3904 51.1511 72.3823 51.0751 72.3742H51.0741C50.8004 72.3448 50.5237 72.3154 50.245 72.286L47.259 67.7006C47.2934 67.587 47.3117 67.4654 47.3117 67.3407C47.3117 66.8796 47.0593 66.4772 46.6853 66.2643L50.2946 58.1831C50.3767 58.2094 50.4629 58.2267 50.5511 58.2338L51.3011 72.3985Z" fill="#110C24"/>
<path d="M49.7261 72.2322C47.5733 72.0072 45.2907 71.7892 43.151 71.695H43.15C42.9047 71.6838 42.6625 71.6747 42.4213 71.6676L45.2299 68.2458C45.4508 68.4526 45.7478 68.5792 46.0742 68.5792C46.4664 68.5792 46.8161 68.3968 47.0432 68.111L49.7261 72.2322Z" fill="#110C24"/>
<path d="M70.5336 56.5533L67.1118 66.4427C66.9527 66.3363 66.7621 66.2735 66.5563 66.2735C66.2421 66.2735 65.9624 66.4184 65.78 66.6454L59.1998 62.1634C59.2576 62.0377 59.289 61.8989 59.289 61.7519C59.289 61.6475 59.2728 61.5472 59.2434 61.4529L70.2772 56.3455C70.3502 56.4286 70.4363 56.4985 70.5336 56.5533Z" fill="#110C24"/>
<path d="M72.2721 33.6788C72.2721 33.6788 73.1823 35.4161 74.3357 37.8395L63.9375 40.116C63.9314 40.043 63.9182 39.9721 63.8979 39.9032L69.2324 34.4339C69.2577 34.4359 69.2831 34.4369 69.3094 34.4369C69.7787 34.4369 70.1679 34.0984 70.246 33.6524L75.6179 30.9563C75.5551 31.0881 75.4922 31.2138 75.4294 31.3324C73.9192 34.1815 72.2721 33.6788 72.2721 33.6788Z" fill="#110C24"/>
<path d="M68.8035 34.292L63.7052 39.52C63.5441 39.3102 63.3099 39.1582 63.0424 39.1024L62.1332 33.2916L68.4244 33.8318C68.4984 34.0234 68.6322 34.1835 68.8035 34.292Z" fill="#110C24"/>
<path d="M77.7198 45.7355L76.4781 47.5296C76.3433 47.4606 76.1913 47.4221 76.0291 47.4221C75.7331 47.4221 75.4666 47.5509 75.2841 47.7566L67.286 44.1361L74.8088 38.8432C75.798 40.9667 76.8917 43.457 77.7198 45.7355Z" fill="#110C24"/>
<path d="M66.6619 43.7023C66.6649 43.6932 66.6659 43.6881 66.6659 43.6881L65.2155 41.959L62.7059 44.5801L60.5348 43.8756L59.9956 43.7003L62.489 41.3032C62.5893 41.3326 62.6958 41.3478 62.8062 41.3478C63.3272 41.3478 63.7671 40.9961 63.8999 40.5166L74.3914 38.3648L66.6619 43.7023Z" fill="#110C24"/>
<path d="M75.3554 49.1511L71.4541 54.7886C71.3234 54.7257 71.1774 54.6902 71.0233 54.6902C70.7801 54.6902 70.5561 54.7784 70.3828 54.9244L63.531 48.6392C63.6496 48.5267 63.7641 48.4132 63.8736 48.2986C63.9121 48.2591 63.9496 48.2196 63.9871 48.18C65.4061 46.6749 66.1339 45.1414 66.4531 44.3133L75.0797 48.1172C75.0493 48.2135 75.0331 48.3138 75.0331 48.4182C75.0331 48.7081 75.1567 48.9696 75.3554 49.1511Z" fill="#110C24"/>
<path d="M62.6307 39.0903C62.1746 39.1613 61.8077 39.5039 61.7023 39.9478L59.5859 39.44L59.5951 39.4076L60.859 34.6275L61.0303 33.9799L61.7449 33.4346L62.6307 39.0903Z" fill="#110C24"/>
<path d="M40.6686 73.8033L40.6585 73.7952L40.3635 73.8063L40.3605 73.8094L40.3585 73.8063L37.5924 73.9087L40.546 77.513C42.4849 75.4493 43.9445 73.6746 43.9445 73.6746L40.6767 73.7952L40.6696 73.8043L40.6686 73.8033Z" fill="#110C24"/>
<path d="M26.7056 82.6447L26.7107 82.6569L27.4354 83.1728C27.5327 83.0795 27.629 82.9893 27.7202 82.9032C28.0607 82.5839 28.3628 82.3112 28.6334 82.0761L26.2819 72.9387C26.1096 73.2276 25.9191 73.483 25.7072 73.7019C23.3679 76.1295 21.2009 77.9498 21.2009 77.9498C21.2009 77.9498 21.1857 78.0471 21.1583 78.2286C21.1411 78.3401 21.1198 78.485 21.0955 78.6563L26.6975 82.6477L26.7056 82.6447Z" fill="#110C24"/>
<path d="M32.9319 64.8919C32.6319 65.1037 32.4363 65.4544 32.4363 65.8497H27.9137C28.1438 63.411 28.2816 60.7332 28.5705 58.1871C28.6242 57.7087 28.681 57.2627 28.7418 56.8461L32.9319 64.8919Z" fill="#110C24"/>
<path d="M26.2506 82.8273L21.0307 79.1084C20.8411 80.4413 20.532 82.7644 20.304 85.2122L26.2506 82.8283V82.8273Z" fill="#110C24"/>
<path d="M39.6825 94.903L35.7671 93.3674C35.9688 94.0212 36.1066 94.6283 36.1492 95.1655C36.1948 95.7331 36.2536 96.3646 36.3195 97.0275L40.5927 98.2417C40.2927 97.1481 39.9836 96.0149 39.6835 94.903H39.6825Z" fill="#110C24"/>
<path d="M21.6135 61.3507C23.4795 62.4109 26.1888 62.4291 26.1888 62.4291L26.3277 60.9908L23.6346 58.984L21.6135 61.3507Z" fill="#110C24"/>
<path d="M29.7778 74.4694L29.5174 81.3465C29.3542 81.4742 29.1748 81.6181 28.9771 81.7833L26.5648 72.4067C26.7452 72.0226 26.9034 71.5959 27.0422 71.1327C27.0686 71.0414 27.0949 70.9482 27.1203 70.8549L29.2143 73.1132C29.1545 73.2409 29.1211 73.3828 29.1211 73.5338C29.1211 73.9646 29.3947 74.3315 29.7778 74.4694Z" fill="#110C24"/>
<path d="M72.9156 64.1064C70.0836 67.213 66.7388 71.9079 65.9807 75.0459C65.7861 75.8466 65.6513 77.2606 65.558 79.0424L61.4764 82.3477C61.4794 81.1284 61.4855 80.1675 61.4966 79.6019C61.5179 78.5357 61.4835 77.5049 61.3578 76.5845C61.3172 76.2936 61.2676 76.0159 61.2078 75.7504L66.7206 68.2519C67.1919 68.1729 67.5517 67.7634 67.5517 67.2688C67.5517 67.0914 67.5051 66.9241 67.423 66.7802L70.9198 56.6769C70.9533 56.68 70.9877 56.682 71.0232 56.682H71.0354L72.9156 64.1064Z" fill="#110C24"/>
<path d="M57.5903 62.4573L52.5356 72.5282C52.5356 72.5282 52.5275 72.5282 52.5245 72.5282C52.2569 72.5008 51.9842 72.4725 51.7095 72.4431L50.9554 58.1912C51.2332 58.1081 51.4643 57.9185 51.6031 57.6692L57.3552 61.4194C57.3177 61.5238 57.2974 61.6353 57.2974 61.7529C57.2974 62.0286 57.4089 62.2779 57.5903 62.4583V62.4573Z" fill="#110C24"/>
<path d="M33.1145 66.9139L30.3333 72.5606C30.2633 72.5454 30.1914 72.5372 30.1174 72.5372C29.867 72.5372 29.6379 72.6295 29.4626 72.7836L27.2408 70.3875C27.2905 70.1787 27.3381 69.9648 27.3827 69.7448C27.5976 68.6877 27.7507 67.5059 27.8753 66.2551H32.5084C32.6158 66.546 32.8358 66.7832 33.1145 66.9139Z" fill="#110C24"/>
<path d="M32.4658 85.714L37.2133 85.7738C36.7218 84.3578 36.3062 83.3858 36.5211 82.3692L33.8138 77.7635C32.6523 79.1886 31.6032 80.7008 31.4015 81.7103C31.2302 82.5678 31.7309 84.0243 32.4658 85.714Z" fill="#110C24"/>
<path d="M38.1407 79.9444C38.465 79.6343 38.7863 79.318 39.1036 79.0008L34.1665 77.3375C34.1026 77.4135 34.0398 77.4896 33.9769 77.5656L36.6497 81.9351C36.8798 81.3401 37.343 80.7066 38.1417 79.9444H38.1407Z" fill="#110C24"/>
<path d="M38.6953 71.9271C36.8708 72.3802 35.8765 73.3492 35.0353 74.5837C34.9917 74.6465 34.9501 74.7104 34.9076 74.7742L34.9501 74.5867L31.0965 73.713C31.1077 73.6553 31.1127 73.5944 31.1127 73.5336C31.1127 73.2032 30.9516 72.9093 30.7032 72.7289L33.5149 67.0194C33.5463 67.0224 33.5777 67.0235 33.6102 67.0235C33.8291 67.0235 34.0339 66.9637 34.2092 66.8593L38.6953 71.9271Z" fill="#110C24"/>
<path d="M37.8539 87.9203C37.6978 87.2695 37.5235 86.6969 37.3522 86.181L32.6451 86.1212C32.6796 86.2002 32.7151 86.2783 32.7506 86.3573L38.1215 89.0017C38.0181 88.5933 37.9279 88.2294 37.8539 87.9192V87.9203Z" fill="#110C24"/>
<path d="M38.7661 91.4821C38.5786 90.7726 38.4053 90.1097 38.2542 89.5198L33.0171 86.9413C33.7712 88.5812 34.6348 90.3469 35.2672 91.9564L38.7671 91.4821H38.7661Z" fill="#110C24"/>
<path d="M39.3764 78.7272C39.6794 78.4201 39.9764 78.1129 40.2642 77.8099L37.1799 74.0455C36.7897 74.4387 35.5481 75.7067 34.3115 77.1653L39.3764 78.7282V78.7272Z" fill="#110C24"/>
<path d="M40.9322 60.5225L34.5862 65.1961C34.4473 64.9884 34.2436 64.8282 34.0044 64.7431L34.3896 51.0933C34.6348 51.076 34.8903 51.0618 35.1578 51.0487C35.173 51.0476 35.1872 51.0476 35.2024 51.0466H35.2217L40.7366 59.2475C40.6433 59.3995 40.5886 59.5789 40.5886 59.7715C40.5886 60.0715 40.7214 60.3401 40.9322 60.5225Z" fill="#110C24"/>
<path d="M49.9377 57.9886L46.3051 66.1246H46.3041C46.2291 66.1094 46.153 66.1023 46.074 66.1023C45.3898 66.1023 44.8354 66.6567 44.8354 67.3409C44.8354 67.5487 44.8861 67.7443 44.9773 67.9156L41.9072 71.6557C41.7835 71.6526 41.6578 71.6496 41.5362 71.6476C40.8977 71.6394 40.324 71.6678 39.805 71.7297C39.576 71.757 39.358 71.7905 39.1493 71.829L34.5172 66.5959C34.6845 66.3922 34.7848 66.1327 34.7848 65.8499C34.7848 65.7556 34.7736 65.6654 34.7524 65.5773L41.3305 60.7344C41.4115 60.7557 41.4967 60.7668 41.5839 60.7668C42.0045 60.7668 42.3643 60.5063 42.5103 60.1374L49.5789 57.4585C49.6438 57.6694 49.7705 57.8528 49.9377 57.9886Z" fill="#110C24"/>
<path d="M72.95 74.3618L73.9514 70.9015L70.0147 69.9589L67.8071 72.8253C67.8071 72.8253 70.6573 73.8611 72.951 74.3618H72.95Z" fill="#110C24"/>
<path d="M42.3461 51.7609L41.6031 58.7749H41.5839C41.3761 58.7749 41.1835 58.8387 41.0234 58.9482L35.7031 51.0352C35.9585 51.0332 36.217 51.0372 36.4815 51.0474C38.2239 51.1183 40.1517 51.4416 42.3461 51.7609Z" fill="#110C24"/>
<path d="M26.3731 60.5195L26.7806 56.3C26.2981 57.5609 25.1619 58.2917 23.9507 58.7154L26.3721 60.5206L26.3731 60.5195Z" fill="#110C24"/>
<path d="M53.9041 52.3491L51.0002 56.0841C50.8867 56.0436 50.7641 56.0223 50.6363 56.0223C50.0546 56.0223 49.5772 56.4713 49.5336 57.0429L42.5764 59.6792C42.543 59.3184 42.3169 59.0123 42.0017 58.8674L42.7477 51.819C43.0102 51.8565 43.2748 51.894 43.5454 51.9305C46.4777 52.3298 49.8752 52.645 53.9041 52.3491Z" fill="#110C24"/>
<path d="M33.9841 51.1246L33.601 64.6751C33.4966 64.6761 33.3952 64.6903 33.299 64.7177L28.8494 56.1742C28.9173 55.784 28.9892 55.4222 29.0703 55.0897C29.7839 52.1179 31.0488 51.378 33.9841 51.1246Z" fill="#110C24"/>
<path d="M63.166 28.9932L63.2735 26.2627C62.8174 25.9616 62.2569 25.7163 61.5798 25.616C61.5798 25.616 61.372 26.2728 61.2534 27.112L63.166 28.9932Z" fill="#110C24"/>
<path d="M67.3184 28.0598L67.892 28.6335L71.7923 24.7332V12.6737C72.296 12.5045 72.6599 12.0291 72.6599 11.4676C72.6599 10.7642 72.0903 10.1945 71.3869 10.1945C70.6834 10.1945 70.1138 10.7642 70.1138 11.4676C70.1138 12.0291 70.4777 12.5045 70.9814 12.6737V24.3967L69.7773 25.6009V16.949C70.281 16.7797 70.6449 16.3044 70.6449 15.7428C70.6449 15.0394 70.0753 14.4698 69.3719 14.4698C68.6684 14.4698 68.0988 15.0394 68.0988 15.7428C68.0988 16.3044 68.4627 16.7797 68.9664 16.949V26.4117L67.3184 28.0598Z" fill="#110C24"/>
<path d="M70.8924 30.8915L69.9163 32.7535C69.7521 32.6166 69.5402 32.5345 69.3092 32.5345C69.1571 32.5345 69.0132 32.57 68.8855 32.6339L66.1316 29.6793L66.8472 29.656L69.9578 29.5566L70.8924 30.8915Z" fill="#110C24"/>
<path d="M63.5574 29.3611C64.0165 29.1118 64.497 28.7408 64.9318 28.1894C64.9318 28.1894 64.5578 27.2995 63.6678 26.5565L63.5574 29.3611Z" fill="#110C24"/>
<path d="M34.7849 74.9649C34.1849 75.9086 33.6314 76.9809 32.8571 78.0837C31.8344 79.5402 31.3631 79.9953 30.7691 80.4342C30.5269 80.6126 30.2633 80.7899 29.9349 81.0312L30.1812 74.5271C30.4965 74.5068 30.7721 74.3395 30.9404 74.0932L34.7849 74.9649Z" fill="#110C24"/>
<path d="M58.2928 72.8709C58.2522 72.873 58.2107 72.874 58.1691 72.877C57.191 72.952 55.6119 72.8365 53.7155 72.649C53.4712 72.6257 53.2208 72.5993 52.9664 72.574L57.9319 62.6805L58.0069 62.5305L58.012 62.7078L58.2928 72.8709Z" fill="#110C24"/>
<path d="M61.5374 98.8892C61.5465 100.34 61.5536 101.569 61.5596 102.43C62.9168 102.181 64.2547 101.88 65.5714 101.529C65.5623 101.158 65.5511 100.735 65.54 100.268L61.5374 98.8892Z" fill="#110C24"/>
<path d="M75.1151 81.4852L72.4494 84.9404L71.6487 85.9783C72.791 85.0621 74.0022 83.8955 75.1151 82.4369V81.4852Z" fill="#110C24"/>
<path d="M41.6823 102.2C40.3667 101.929 39.0693 101.607 37.7932 101.236C37.4415 101.133 37.0918 101.028 36.7431 100.918C36.6124 99.7973 36.4786 98.5942 36.363 97.461L40.7174 98.6986C41.065 99.9676 41.3975 101.17 41.6823 102.2Z" fill="#110C24"/>
<path d="M21.2658 61.1336L23.1237 58.9574C21.4827 59.3558 19.9462 59.2828 19.9462 59.2828C20.1154 60.0886 20.6161 60.6876 21.2658 61.1336Z" fill="#110C24"/>
<path d="M74.653 10.1275V23.4489L70.0422 28.0597L70.6159 28.6333L78.9688 20.2805V12.0127C79.4725 11.8435 79.8364 11.3681 79.8364 10.8066C79.8364 10.1032 79.2668 9.53353 78.5634 9.53353C77.8599 9.53353 77.2903 10.1032 77.2903 10.8066C77.2903 11.3681 77.6542 11.8435 78.1579 12.0127V19.945L75.4638 22.638V10.1275C75.9676 9.95822 76.3315 9.48285 76.3315 8.92133C76.3315 8.21791 75.7618 7.64828 75.0584 7.64828C74.355 7.64828 73.7854 8.21791 73.7854 8.92133C73.7854 9.48285 74.1492 9.95822 74.653 10.1275Z" fill="#110C24"/>
<path d="M23.0617 89.974L20.1517 87.064C20.022 88.9016 19.9642 90.6865 20.0666 92.0559C20.9068 92.7258 21.7684 93.3684 22.6502 93.9847C22.6107 92.8809 22.6816 91.4761 23.0607 89.974H23.0617Z" fill="#110C24"/>
<path d="M26.6428 83.1068L20.2634 85.6651C20.2573 85.7299 20.2522 85.7948 20.2461 85.8597C20.2269 86.0837 20.2086 86.3077 20.1914 86.5317L23.1845 89.5248C23.2382 89.3413 23.295 89.1568 23.3578 88.9713C23.8768 87.45 24.7413 85.8779 26.1421 84.4518C26.5029 84.0849 26.8334 83.7565 27.1384 83.4605L26.6428 83.1078V83.1068Z" fill="#110C24"/>
<path d="M70.2853 69.6059L74.0639 70.5111L74.3467 69.5309L72.0854 67.2686L70.2853 69.6059Z" fill="#110C24"/>
<path d="M74.2655 76.9868C74.0476 77.6223 73.7557 78.343 73.3685 79.0941L78.0604 75.131L74.2655 76.9868Z" fill="#110C24"/>
<path d="M66.9052 85.2018V88.8142C66.9052 88.8142 68.2167 88.3399 69.9844 87.1854L66.9052 85.2029V85.2018Z" fill="#110C24"/>
<path d="M74.4581 70.6053L75.7241 70.9084L74.674 69.8583L74.4581 70.6053Z" fill="#110C24"/>
<path d="M66.2442 68.2153L61.077 75.2444C60.7729 74.2268 60.2813 73.4565 59.5161 73.0946C59.2718 72.9791 59.0002 72.9061 58.6991 72.8788L58.4174 62.74C58.6251 62.7146 58.8127 62.6244 58.9606 62.4916L65.5945 67.0091C65.5722 67.0912 65.56 67.1784 65.56 67.2686C65.56 67.7095 65.8469 68.0835 66.2442 68.2153Z" fill="#110C24"/>
<path d="M61.4846 88.279C61.4846 88.4503 61.4856 88.6227 61.4866 88.796L64.3905 91.0025L65.3858 89.6443C65.3838 89.2703 65.3828 88.8963 65.3828 88.5213L61.4795 86.1222C61.4815 86.8175 61.4835 87.5391 61.4856 88.277L61.4846 88.279Z" fill="#110C24"/>
<path d="M77.0165 48.5409C77.0215 48.5003 77.0246 48.4598 77.0246 48.4182C77.0246 48.177 76.9384 47.9561 76.7965 47.7837L77.8881 46.2056C77.9459 46.3708 78.0027 46.534 78.0574 46.6962C78.0858 46.7803 78.1131 46.8644 78.1395 46.9496C78.3564 47.6277 78.5257 48.3301 78.6513 49.0436C78.6666 49.1288 78.6807 49.2149 78.6949 49.3001L77.0165 48.5409Z" fill="#110C24"/>
<path d="M65.3817 87.661C65.3847 84.9882 65.4192 82.3681 65.5063 80.1666C65.5144 79.968 65.5225 79.7764 65.5307 79.5858L61.4753 82.8698C61.4753 83.0523 61.4753 83.2388 61.4753 83.4293C61.4753 84.004 61.4753 84.6172 61.4764 85.2609C61.4764 85.3886 61.4764 85.5173 61.4764 85.646L65.3806 88.0451C65.3806 87.9164 65.3806 87.7887 65.3806 87.66L65.3817 87.661Z" fill="#110C24"/>
<path d="M65.3988 91.7699C65.3978 91.632 65.3958 91.4952 65.3948 91.3573V91.2519C65.3928 90.9448 65.3907 90.6367 65.3887 90.3265L64.7126 91.2489L65.3988 91.7699Z" fill="#110C24"/>
<path d="M76.2724 71.4568L74.3456 70.9956L73.3483 74.4438C73.7882 74.5299 74.1987 74.5908 74.5524 74.6151L77.1228 72.3062L76.2734 71.4568H76.2724Z" fill="#110C24"/>
<path d="M61.4884 89.307C61.4955 91.173 61.5046 93.1049 61.5148 94.9253L64.1501 91.3301L61.4884 89.307Z" fill="#110C24"/>
<path d="M77.4087 72.593L74.8139 74.9243C74.7571 75.2354 74.6436 75.7736 74.4379 76.4507L78.778 74.3283C78.7993 74.2279 78.8206 74.1276 78.8398 74.0262L77.4076 72.594L77.4087 72.593Z" fill="#110C24"/>
<path d="M77.56 59.2523C76.4937 61.1457 74.6834 62.212 73.2431 63.7506L71.4319 56.5947C71.7785 56.4386 72.0187 56.09 72.0187 55.6856C72.0187 55.4372 71.9275 55.2092 71.7765 55.0359L75.7051 49.3588C75.8065 49.3943 75.9159 49.4136 76.0295 49.4136C76.3933 49.4136 76.7126 49.2179 76.8859 48.926L78.7661 49.7774C78.9121 49.8433 78.904 51.1326 78.9141 51.3181C79.0611 53.9229 78.8644 56.9353 77.56 59.2523Z" fill="#110C24"/>
<path d="M78.5713 75.2295L75.5194 78.0422V81.8847C76.7894 80.0937 77.8952 77.8973 78.5713 75.2295Z" fill="#110C24"/>
<path d="M75.115 80.8211V78.1493L72.7889 80.1136C71.9426 81.4698 70.7648 82.8391 69.1329 83.9135L72.2142 84.5794L75.114 80.8201L75.115 80.8211Z" fill="#110C24"/>
<path d="M65.5255 99.7001C65.4819 97.7206 65.4322 95.0944 65.4038 92.2827L64.4734 91.5753L61.5188 95.6052C61.5208 95.9549 61.5229 96.2995 61.5249 96.6371C61.5279 97.2209 61.531 97.7865 61.534 98.3247C61.534 98.3703 61.534 98.4149 61.534 98.4595L65.5285 99.8359C65.5275 99.7903 65.5265 99.7467 65.5255 99.7001Z" fill="#110C24"/>
<path d="M68.6392 84.2228C68.2003 84.4813 67.7321 84.7195 67.2303 84.9303L70.3511 86.9402C70.3815 86.92 70.412 86.8977 70.4434 86.8764L71.9404 84.9364L68.6392 84.2228Z" fill="#110C24"/>
<path d="M58.0068 62.5305L57.9318 62.6805C57.9581 62.6907 57.9845 62.6998 58.0118 62.7079L58.0068 62.5305Z" fill="#FCF7FF"/>
<g clip-path="url(#clip0_1690_5550)">
<path d="M120.913 95.7753V90.3815L131.851 81.2561C135.391 78.3344 136.872 76.2653 136.872 73.5245C136.872 70.1531 135.215 68.3545 132.255 68.3545C129.295 68.3545 127.369 70.4684 127.369 74.198H120.15C120.15 66.7351 124.902 61.8804 132.21 61.8804C139.518 61.8804 144.314 65.972 144.314 73.0749C144.314 77.6161 141.579 81.3009 137.455 84.7637L132.478 88.9449H144.582V95.6876L120.913 95.7772V95.7753Z" fill="url(#paint1_linear_1690_5550)"/>
<path d="M162.02 61.8787C170.672 61.8787 176.5 68.9368 176.5 79.2319C176.5 89.5271 171.122 96.3594 162.02 96.3594C152.919 96.3594 147.54 89.5271 147.54 79.2319C147.54 68.9368 153.367 61.8787 162.02 61.8787ZM162.02 89.9767C166.638 89.9767 169.326 86.3796 169.326 79.2319C169.326 72.0843 166.636 68.2632 162.02 68.2632C157.405 68.2632 154.712 71.8604 154.712 79.2319C154.712 86.6035 157.403 89.9767 162.02 89.9767Z" fill="url(#paint2_linear_1690_5550)"/>
<path d="M180.222 95.7756V90.3817L191.159 81.2564C194.7 78.3346 196.181 76.2655 196.181 73.5247C196.181 70.1533 194.523 68.3548 191.563 68.3548C188.603 68.3548 186.677 70.4687 186.677 74.1983H179.461C179.461 66.7353 184.212 61.8806 191.52 61.8806C198.828 61.8806 203.624 65.9722 203.624 73.0751C203.624 77.6163 200.89 81.3011 196.765 84.764L191.788 88.9451H203.892V95.6879L180.223 95.7774L180.222 95.7756Z" fill="url(#paint3_linear_1690_5550)"/>
<path d="M229.488 89.8852V95.7735H222.629V89.8852H206.132V83.5025L220.432 62.5073H229.487V83.5025H233.567V89.8852H229.487H229.488ZM222.629 83.5025V70.5562L213.842 83.5025H222.629Z" fill="url(#paint4_linear_1690_5550)"/>
<path d="M135.088 7.22351H121.17V29.5396H135.088C138.344 29.5396 141.293 28.2915 143.425 26.2727C145.559 24.254 146.878 21.4629 146.878 18.3825C146.878 12.2181 141.6 7.22351 135.088 7.22351ZM139.961 22.5786C138.826 23.6532 137.6 24.0264 135.868 24.0264L127.135 23.9126C126.725 23.907 126.394 23.5917 126.394 23.2036V13.2405C126.394 12.8021 126.77 12.4457 127.235 12.4457H135.416C138.891 12.4457 141.823 15.1361 141.799 18.4254C141.786 20.0468 141.086 21.5132 139.963 22.5786H139.961ZM173.926 9.55382C173.926 11.011 172.748 12.192 171.295 12.192H150.284C148.831 12.192 147.654 11.011 147.654 9.55382C147.654 8.09668 148.831 6.91566 150.284 6.91566H171.295C172.748 6.91566 173.926 8.09668 173.926 9.55382ZM173.926 26.9034C173.926 28.3605 172.748 29.5415 171.295 29.5415H150.284C148.831 29.5415 147.654 28.3605 147.654 26.9034C147.654 25.4462 148.831 24.2652 150.284 24.2652H171.295C172.748 24.2652 173.926 25.4462 173.926 26.9034ZM149.661 18.2277C149.661 16.7705 150.839 15.5895 152.292 15.5895H169.287C170.74 15.5895 171.918 16.7705 171.918 18.2277C171.918 19.6848 170.74 20.8658 169.287 20.8658H152.292C150.839 20.8658 149.661 19.6848 149.661 18.2277ZM202.668 9.55382C202.668 11.011 201.49 12.192 200.037 12.192H179.027C177.574 12.192 176.396 11.011 176.396 9.55382C176.396 8.09668 177.574 6.91566 179.027 6.91566H200.037C201.49 6.91566 202.668 8.09668 202.668 9.55382ZM202.668 26.9034C202.668 28.3605 201.49 29.5415 200.037 29.5415H179.027C177.574 29.5415 176.396 28.3605 176.396 26.9034C176.396 25.4462 177.574 24.2652 179.027 24.2652H200.037C201.49 24.2652 202.668 25.4462 202.668 26.9034ZM178.406 18.2295C178.406 16.7724 179.583 15.5914 181.036 15.5914H198.032C199.485 15.5914 200.662 16.7724 200.662 18.2295C200.662 19.6867 199.485 20.8677 198.032 20.8677H181.036C179.583 20.8677 178.406 19.6867 178.406 18.2295ZM227.007 22.7745L230.955 29.5434H224.824L221.34 23.5711H210.854V29.5434H205.546V18.3769H223.282C224.112 18.3769 224.865 18.0429 225.41 17.5037C225.956 16.9645 226.292 16.2201 226.292 15.3973C226.292 13.7517 224.945 12.4196 223.284 12.4196H205.548V7.21418H223.451C228.015 7.21418 231.714 10.8748 231.714 15.3899C231.714 17.6474 230.789 19.6923 229.293 21.1718C228.633 21.8248 227.861 22.3696 227.007 22.7707V22.7745ZM147.213 33.0603V55.3858H142.184V46.7455H126.199V55.3858H121.17V33.0603H126.199V41.7006H142.184V33.0603H147.213ZM178.597 55.3858H172.519L163.918 40.4486C163.71 40.0867 163.187 40.0867 162.979 40.4486L154.378 55.3858H148.299L159.918 35.204C161.486 32.4782 165.408 32.4782 166.979 35.204L178.597 55.3858ZM198.314 41.9319V38.7863H183.157V50.1393H198.314V46.8948H204.476V46.9937C204.476 51.839 200.56 55.7664 195.728 55.7664H185.22C180.953 55.7664 177.494 52.298 177.494 48.018V40.9076C177.494 36.6276 180.953 33.1592 185.22 33.1592H195.728C200.56 33.1592 204.476 37.0866 204.476 41.9319H198.314ZM233.319 55.2514L233.161 55.3858H226.331L216.709 43.8853L211.213 48.5086V55.3839H205.775V33.0584H211.213V41.3871L213.211 39.7061L217.379 36.1985L221.111 33.0584H229.572L220.873 40.3777L233.317 55.2496L233.319 55.2514Z" fill="url(#paint5_linear_1690_5550)"/>
</g>
<defs>
<linearGradient id="paint0_linear_1690_5550" x1="0.568604" y1="51.6376" x2="103.844" y2="51.6376" gradientUnits="userSpaceOnUse">
<stop stop-color="#8247FF"/>
<stop offset="1" stop-color="#F5C144"/>
</linearGradient>
<linearGradient id="paint1_linear_1690_5550" x1="252.696" y1="48.003" x2="112.321" y2="85.2698" gradientUnits="userSpaceOnUse">
<stop stop-color="#8247FF"/>
<stop offset="1" stop-color="#F5C144"/>
</linearGradient>
<linearGradient id="paint2_linear_1690_5550" x1="254.415" y1="54.4773" x2="114.04" y2="91.7459" gradientUnits="userSpaceOnUse">
<stop stop-color="#8247FF"/>
<stop offset="1" stop-color="#F5C144"/>
</linearGradient>
<linearGradient id="paint3_linear_1690_5550" x1="256.622" y1="62.7893" x2="116.247" y2="100.056" gradientUnits="userSpaceOnUse">
<stop stop-color="#8247FF"/>
<stop offset="1" stop-color="#F5C144"/>
</linearGradient>
<linearGradient id="paint4_linear_1690_5550" x1="258.581" y1="70.1643" x2="118.204" y2="107.433" gradientUnits="userSpaceOnUse">
<stop stop-color="#8247FF"/>
<stop offset="1" stop-color="#F5C144"/>
</linearGradient>
<linearGradient id="paint5_linear_1690_5550" x1="233.416" y1="6.83136" x2="94.221" y2="71.3656" gradientUnits="userSpaceOnUse">
<stop stop-color="#8247FF"/>
<stop offset="1" stop-color="#F5C144"/>
</linearGradient>
<clipPath id="clip0_1690_5550">
<rect width="113.418" height="89.4436" fill="white" transform="translate(120.15 6.91584)"/>
</clipPath>
</defs>
</svg>
