<svg width="60" height="100" viewBox="0 0 66 108" fill="none" xmlns="http://www.w3.org/2000/svg">
<g clip-path="url(#clip0_1690_5353)">
<path d="M3.80551 41.4963L18.9612 51.4658H23.5865L13.1778 44.6193V33.2491C15.0421 32.7468 16.4151 31.0407 16.4151 29.0119C16.4151 26.5888 14.4565 24.6245 12.0406 24.6245C9.62467 24.6245 7.66609 26.5888 7.66609 29.0119C7.66609 31.0407 9.03908 32.7468 10.9034 33.2491V43.123L6.08188 39.9509V23.0951C7.94616 22.5929 9.31915 20.8867 9.31915 18.858C9.31915 16.4349 7.36056 14.4705 4.94463 14.4705C2.5287 14.4705 0.570123 16.4349 0.570123 18.858H0.568237C0.568237 20.8867 1.94122 22.5929 3.80551 23.0951V41.4963ZM9.71143 29.011C9.71143 27.721 10.7544 26.6749 12.0406 26.6749C13.3268 26.6749 14.3698 27.721 14.3698 29.011C14.3698 30.301 13.3268 31.3471 12.0406 31.3471C10.7544 31.3471 9.71143 30.301 9.71143 29.011ZM2.61452 18.858C2.61452 17.568 3.65746 16.5219 4.94369 16.5219C6.22992 16.5219 7.27287 17.568 7.27287 18.858C7.27287 20.1481 6.22992 21.1941 4.94369 21.1941C3.65746 21.1941 2.61452 20.1481 2.61452 18.858Z" fill="url(#paint0_linear_1690_5353)"/>
<path d="M27.7498 48.335V24.4728C29.6141 23.9706 30.987 22.2644 30.987 20.2357C30.987 17.8126 29.0285 15.8482 26.6125 15.8482C24.1966 15.8482 22.238 17.8126 22.238 20.2357C22.238 22.2644 23.611 23.9706 25.4753 24.4728V46.8387L19.5354 42.9317V8.62151C21.3997 8.1193 22.7727 6.41311 22.7727 4.3844C22.7727 1.9613 20.8141 -0.0030899 18.3982 -0.0030899C15.9823 -0.0030899 14.0237 1.9613 14.0237 4.3844C14.0237 6.41311 15.3967 8.1193 17.261 8.62151V44.4771L27.8837 51.4655H32.509L27.7498 48.335ZM24.3088 20.2357C24.3088 18.9457 25.3518 17.8996 26.638 17.8996C27.9242 17.8996 28.9672 18.9457 28.9672 20.2357C28.9672 21.5258 27.9242 22.5718 26.638 22.5718C25.3518 22.5718 24.3088 21.5258 24.3088 20.2357ZM16.1001 4.3844C16.1001 3.09435 17.1431 2.04831 18.4293 2.04831C19.7155 2.04831 20.7585 3.09435 20.7585 4.3844C20.7585 5.67445 19.7155 6.72049 18.4293 6.72049C17.1431 6.72049 16.1001 5.67445 16.1001 4.3844Z" fill="url(#paint1_linear_1690_5353)"/>
<path d="M48.4285 2.31591C46.0126 2.31591 44.054 4.2803 44.054 6.7034C44.054 8.73211 45.427 10.4383 47.2913 10.9405V42.7756L41.408 46.6457V31.0517C43.2723 30.5494 44.6453 28.8433 44.6453 26.8145C44.6453 24.3914 42.6867 22.4271 40.2708 22.4271C37.8548 22.4271 35.8963 24.3914 35.8963 26.8145C35.8963 28.8433 37.2692 30.5494 39.1335 31.0517V48.142L34.0763 51.4683H38.7016L49.5658 44.322V10.9405C51.4301 10.4383 52.803 8.73211 52.803 6.7034C52.803 4.2803 50.8445 2.31591 48.4285 2.31591ZM37.9416 26.8136C37.9416 25.5236 38.9845 24.4775 40.2708 24.4775C41.557 24.4775 42.5999 25.5236 42.5999 26.8136C42.5999 28.1037 41.557 29.1497 40.2708 29.1497C38.9845 29.1497 37.9416 28.1037 37.9416 26.8136ZM50.7568 6.7034C50.7568 7.99345 49.7138 9.03949 48.4276 9.03949C47.1414 9.03949 46.0984 7.99345 46.0984 6.7034C46.0984 5.41335 47.1414 4.36732 48.4276 4.36732C49.7138 4.36732 50.7568 5.41335 50.7568 6.7034Z" fill="url(#paint2_linear_1690_5353)"/>
<path d="M61.1938 10.8756C58.7778 10.8756 56.8193 12.84 56.8193 15.2631C56.8193 17.2918 58.1922 18.998 60.0565 19.5002V40.9874L55.8961 43.7236V39.0457C57.7604 38.5435 59.1333 36.8373 59.1333 34.8086C59.1333 32.3855 57.1748 30.4211 54.7588 30.4211C52.3429 30.4211 50.3843 32.3855 50.3843 34.8086C50.3843 36.8373 51.7573 38.5435 53.6216 39.0457V45.2208L44.1257 51.4677H48.7511L62.331 42.5347V19.5002C64.1953 18.998 65.5683 17.2918 65.5683 15.2631C65.5683 12.84 63.6097 10.8756 61.1938 10.8756ZM54.7277 37.1447C53.4585 37.1447 52.4297 36.0987 52.4297 34.8086C52.4297 33.5186 53.4585 32.4725 54.7277 32.4725C55.997 32.4725 57.0258 33.5186 57.0258 34.8086C57.0258 36.0987 55.997 37.1447 54.7277 37.1447ZM63.522 15.264C63.522 16.554 62.4791 17.6001 61.1928 17.6001C59.9066 17.6001 58.8637 16.554 58.8637 15.264C58.8637 13.974 59.9066 12.9279 61.1928 12.9279C62.4791 12.9279 63.522 13.974 63.522 15.264Z" fill="url(#paint3_linear_1690_5353)"/>
<path d="M23.6856 73.4317L19.6581 73.6048V77.4674L26.8276 83.9517L26.6588 79.0431L23.6856 73.4317Z" fill="url(#paint4_linear_1690_5353)"/>
<path d="M60.7853 51.8329C59.0418 52.0798 56.1194 52.93 47.1253 56.9392C45.7334 55.9622 39.9491 52.2424 33.8282 52.2027C24.7982 52.2027 18.5188 59.3945 18.5188 59.3945C17.9964 58.8402 17.176 58.0401 16.0576 57.2314C13.7398 55.5546 11.8019 55.0382 9.10972 54.0385C7.4925 53.4379 5.19633 52.512 2.46167 51.1472C3.56025 53.4389 4.52115 55.2718 5.20764 56.5448C7.23601 60.3015 7.76314 60.8065 8.28838 62.5524C8.41191 62.962 8.63823 63.7867 9.22099 64.758C9.84336 65.7955 10.5742 66.5058 11.0872 66.939L16.5103 67.1158C15.8662 66.5408 13.0222 63.9881 10.7873 61.5745C10.2536 60.9976 9.53501 60.1927 8.90509 58.9651C8.48924 58.1564 8.2516 57.4357 8.11393 56.9382C9.95746 57.2976 11.4078 57.849 12.4139 58.3049C14.0208 59.0332 14.9647 59.4607 15.7936 60.4849C16.0774 60.8358 16.4914 61.6587 17.308 63.2911C17.523 63.7205 18.2878 65.2498 18.5198 65.7142C21.443 69.4765 24.8331 70.5178 25.4262 70.8838C26.0193 71.2499 27.8676 71.788 27.9364 75.6326C28.0053 79.4772 30.8455 82.533 30.8455 82.533C30.8455 82.533 31.1633 83.0636 31.0511 83.3114C30.8823 83.6841 29.8167 83.2471 28.7465 83.7919C28.4456 83.9451 28.2872 84.104 28.2344 84.3055C28.1609 84.592 28.3297 84.8578 28.3919 84.9476C29.3613 86.2405 30.8446 86.8241 31.1982 87.6365C30.8804 87.5117 29.6866 87.0738 29.2161 87.5599C28.6286 88.168 29.5008 89.8771 29.9789 90.6148C30.3005 91.1113 30.6371 91.4679 30.8672 91.6873H33.8282V57.99C33.8282 57.99 38.1009 70.1036 38.0669 71.4173C38.032 72.7309 36.9712 78.7215 35.6708 80.232C35.387 80.6453 35.0795 81.2137 34.9004 81.9315C34.8419 82.1661 34.8146 82.3458 34.7976 82.464C34.5411 84.2298 34.5062 85.4508 34.5062 85.4508C34.4713 86.6898 34.3516 88.7516 34.179 91.5048H36.4535C36.6044 90.5117 36.8929 89.2982 37.453 87.9912C38.6752 85.1396 40.5526 83.3303 41.7191 82.3789C43.2873 81.034 44.8564 79.6891 46.4246 78.3442L46.6 72.5531L41.8766 72.7319C41.8766 72.7319 38.6506 81.994 37.3305 82.5558C36.0103 83.1166 39.4607 74.3123 39.6012 73.2559C41.2278 72.5437 44.1445 70.9935 46.6 67.8743C48.0447 66.0395 48.8783 64.235 49.3686 62.8844C49.66 62.4049 50.3531 61.4109 51.6421 60.694C52.8181 60.0395 53.9157 59.9354 54.4711 59.9213C54.291 60.8982 53.9949 61.6293 53.7648 62.1079C52.9303 63.8387 51.6789 64.897 49.3837 66.7999C48.6689 67.3929 48.0616 67.8602 47.6496 68.1694C49.8071 68.0626 51.413 68.0276 52.505 68.0162C53.0246 68.0105 54.9992 67.9945 54.9992 67.9945C56.4627 65.5411 57.6763 63.4065 58.6202 61.7069C60.3318 58.6255 60.9626 57.3279 61.5228 55.6662C62.0735 54.0338 62.3601 52.633 62.5186 51.6759C61.9509 51.7109 61.3709 51.7516 60.7844 51.8348L60.7853 51.8329ZM42.4009 74.4854L45.2016 74.1335V77.4693L39.6012 82.0318L42.4018 74.4854H42.4009ZM44.2953 66.9134C42.8356 69.2438 40.5291 70.0478 39.7747 70.2757L35.7519 55.3569C41.5711 57.5587 43.1657 59.0171 43.1657 59.0171C44.0747 59.8494 45.0064 60.7242 45.3562 62.1751C45.8862 64.3731 44.6923 66.2788 44.2953 66.9125V66.9134ZM59.3897 56.7519C58.9663 57.6977 58.3402 59.089 57.4359 60.745C56.7079 62.0786 55.6847 63.7942 54.2985 65.7123H52.8973C53.7865 64.8289 54.4296 64.0014 54.869 63.3753C55.5405 62.4181 56.4297 61.1252 56.9342 59.2412C57.1473 58.4449 57.2331 57.763 57.2708 57.2929C55.4292 57.1425 54.0175 57.5246 53.2377 57.7989C51.2659 58.4941 50.0476 59.6621 49.2441 60.4499C48.0692 61.601 47.3214 62.7633 46.8631 63.607L46.4265 59.9184C47.6496 59.3992 49.4987 58.5801 51.7232 57.4556C53.2226 56.6971 53.8082 56.3481 55.0228 55.7608C56.3476 55.1186 58.2855 54.2588 60.7712 53.4294C60.4336 54.3099 59.9753 55.4458 59.3907 56.7519H59.3897Z" fill="url(#paint5_linear_1690_5353)"/>
<path d="M47.2128 79.2208C47.2128 79.2208 46.3462 80.0408 45.093 81.2192C43.6116 82.6123 38.9598 86.9998 38.6241 87.6032C38.1724 88.4157 38.1064 88.9623 37.6368 90.2429C37.2134 91.3987 36.7693 92.3085 36.4524 92.91L33.8272 93.0822H31.5555C31.5555 93.0822 31.4678 93.346 31.2707 93.6099C31.2707 93.6099 30.918 94.028 30.3306 94.1377C29.4979 94.2928 28.3814 92.4201 27.4101 90.8653C24.3153 85.9112 23.1969 84.974 22.7094 84.5947C22.1492 84.1587 21.7683 83.9497 20.9978 83.2668C19.7295 82.1432 18.8714 81.0348 18.3452 80.2772L13.3606 87.9967C13.3606 87.9967 15.2164 97.1717 16.5092 98.6992C17.1467 99.4511 17.8303 100.201 17.8303 100.201C19.9624 102.349 21.9144 103.15 23.9984 104.3C25.3865 105.066 27.2979 106.244 29.4564 108H36.4524L48.351 100.804L52.899 89.1288L47.2128 79.2227V79.2208ZM46.862 81.6817L50.2738 87.6439L41.3512 87.2921L46.862 81.6817ZM32.9521 99.226L33.6536 95.0144L35.7518 94.4876V95.0144L34.5287 99.226H32.9511H32.9521ZM35.566 106.596H34.1779V105.898L39.1711 89.9251L46.0728 100.279L35.5651 106.596H35.566ZM47.3892 98.6992L40.3008 88.8715L51.3233 89.5724L47.3892 98.6982V98.6992Z" fill="url(#paint6_linear_1690_5353)"/>
</g>
<defs>
<linearGradient id="paint0_linear_1690_5353" x1="-3.59102" y1="9.25643" x2="25.1503" y2="30.7988" gradientUnits="userSpaceOnUse">
<stop stop-color="#6633CC"/>
<stop offset="1" stop-color="#F5C144"/>
</linearGradient>
<linearGradient id="paint1_linear_1690_5353" x1="10.6835" y1="-7.25704" x2="41.0478" y2="5.88034" gradientUnits="userSpaceOnUse">
<stop stop-color="#6633CC"/>
<stop offset="1" stop-color="#F5C144"/>
</linearGradient>
<linearGradient id="paint2_linear_1690_5353" x1="30.6925" y1="-4.61159" x2="60.8574" y2="9.23299" gradientUnits="userSpaceOnUse">
<stop stop-color="#6633CC"/>
<stop offset="1" stop-color="#F5C144"/>
</linearGradient>
<linearGradient id="paint3_linear_1690_5353" x1="40.2512" y1="5.15454" x2="70.0141" y2="24.0942" gradientUnits="userSpaceOnUse">
<stop stop-color="#6633CC"/>
<stop offset="1" stop-color="#F5C144"/>
</linearGradient>
<linearGradient id="paint4_linear_1690_5353" x1="18.3626" y1="71.9491" x2="26.7145" y2="78.8059" gradientUnits="userSpaceOnUse">
<stop stop-color="#6633CC"/>
<stop offset="1" stop-color="#F5C144"/>
</linearGradient>
<linearGradient id="paint5_linear_1690_5353" x1="-8.39021" y1="45.4335" x2="19.5963" y2="95.378" gradientUnits="userSpaceOnUse">
<stop stop-color="#6633CC"/>
<stop offset="1" stop-color="#F5C144"/>
</linearGradient>
<linearGradient id="paint6_linear_1690_5353" x1="6.21626" y1="75.1646" x2="26.8375" y2="109.293" gradientUnits="userSpaceOnUse">
<stop stop-color="#6633CC"/>
<stop offset="1" stop-color="#F5C144"/>
</linearGradient>
<clipPath id="clip0_1690_5353">
<rect width="65" height="108" fill="white" transform="translate(0.568604)"/>
</clipPath>
</defs>
</svg>
