<svg width="40" height="65" viewBox="0 0 40 65" fill="none" xmlns="http://www.w3.org/2000/svg">
<g clip-path="url(#clip0_2311_3405)">
<path d="M1.94403 24.9223L11.0464 30.9099H13.8243L7.57298 26.7979V19.9691C8.69265 19.6675 9.51726 18.6427 9.51726 17.4243C9.51726 15.969 8.34095 14.7892 6.88996 14.7892C5.43898 14.7892 4.26267 15.969 4.26267 17.4243C4.26267 18.6427 5.08727 19.6675 6.20695 19.9691V25.8993L3.3112 23.9942V13.8707C4.43087 13.5691 5.25548 12.5444 5.25548 11.3259C5.25548 9.87065 4.07917 8.69086 2.62818 8.69086C1.1772 8.69086 0.000888558 9.87065 0.000888558 11.3259H-0.000244141C-0.000244141 12.5444 0.824361 13.5691 1.94403 13.8707V24.9223ZM5.49108 17.4237C5.49108 16.649 6.11746 16.0207 6.88996 16.0207C7.66246 16.0207 8.28885 16.649 8.28885 17.4237C8.28885 18.1985 7.66246 18.8268 6.88996 18.8268C6.11746 18.8268 5.49108 18.1985 5.49108 17.4237ZM1.22873 11.3259C1.22873 10.5512 1.85512 9.92291 2.62762 9.92291C3.40012 9.92291 4.0265 10.5512 4.0265 11.3259C4.0265 12.1007 3.40012 12.729 2.62762 12.729C1.85512 12.729 1.22873 12.1007 1.22873 11.3259Z" fill="url(#paint0_linear_2311_3405)"/>
<path d="M16.3248 29.0295V14.6982C17.4445 14.3965 18.2691 13.3718 18.2691 12.1534C18.2691 10.6981 17.0928 9.51829 15.6418 9.51829C14.1908 9.51829 13.0145 10.6981 13.0145 12.1534C13.0145 13.3718 13.8391 14.3965 14.9588 14.6982V28.1309L11.3914 25.7844V5.17797C12.511 4.87635 13.3356 3.85162 13.3356 2.6332C13.3356 1.17791 12.1593 -0.00189209 10.7083 -0.00189209C9.25736 -0.00189209 8.08105 1.17791 8.08105 2.6332C8.08105 3.85162 8.90566 4.87635 10.0253 5.17797V26.7125L16.4053 30.9097H19.1832L16.3248 29.0295ZM14.2582 12.1534C14.2582 11.3786 14.8846 10.7503 15.6571 10.7503C16.4296 10.7503 17.056 11.3786 17.056 12.1534C17.056 12.9282 16.4296 13.5564 15.6571 13.5564C14.8846 13.5564 14.2582 12.9282 14.2582 12.1534ZM9.32816 2.6332C9.32816 1.85841 9.95454 1.23016 10.727 1.23016C11.4995 1.23016 12.1259 1.85841 12.1259 2.6332C12.1259 3.40799 11.4995 4.03623 10.727 4.03623C9.95454 4.03623 9.32816 3.40799 9.32816 2.6332Z" fill="url(#paint1_linear_2311_3405)"/>
<path d="M28.7444 1.39093C27.2934 1.39093 26.1171 2.57073 26.1171 4.02602C26.1171 5.24445 26.9417 6.26917 28.0613 6.5708V25.6907L24.5279 28.0151V18.6494C25.6476 18.3478 26.4722 17.323 26.4722 16.1046C26.4722 14.6493 25.2958 13.4695 23.8449 13.4695C22.3939 13.4695 21.2176 14.6493 21.2176 16.1046C21.2176 17.323 22.0422 18.3478 23.1618 18.6494V28.9137L20.1245 30.9114H22.9025L29.4274 26.6194V6.5708C30.547 6.26917 31.3716 5.24445 31.3716 4.02602C31.3716 2.57073 30.1953 1.39093 28.7444 1.39093ZM22.446 16.104C22.446 15.3292 23.0724 14.701 23.8449 14.701C24.6174 14.701 25.2437 15.3292 25.2437 16.104C25.2437 16.8788 24.6174 17.5071 23.8449 17.5071C23.0724 17.5071 22.446 16.8788 22.446 16.104ZM30.1427 4.02602C30.1427 4.80081 29.5163 5.42906 28.7438 5.42906C27.9713 5.42906 27.3449 4.80081 27.3449 4.02602C27.3449 3.25123 27.9713 2.62299 28.7438 2.62299C29.5163 2.62299 30.1427 3.25123 30.1427 4.02602Z" fill="url(#paint2_linear_2311_3405)"/>
<path d="M36.4111 6.53174C34.9601 6.53174 33.7838 7.71154 33.7838 9.16683C33.7838 10.3853 34.6084 11.41 35.7281 11.7116V24.6167L33.2293 26.26V23.4505C34.349 23.1489 35.1736 22.1242 35.1736 20.9057C35.1736 19.4504 33.9973 18.2706 32.5463 18.2706C31.0953 18.2706 29.919 19.4504 29.919 20.9057C29.919 22.1242 30.7436 23.1489 31.8633 23.4505V27.1592L26.1602 30.911H28.9381L37.0941 25.546V11.7116C38.2138 11.41 39.0384 10.3853 39.0384 9.16683C39.0384 7.71154 37.8621 6.53174 36.4111 6.53174ZM32.5276 22.3088C31.7653 22.3088 31.1474 21.6805 31.1474 20.9057C31.1474 20.1309 31.7653 19.5027 32.5276 19.5027C33.2899 19.5027 33.9078 20.1309 33.9078 20.9057C33.9078 21.6805 33.2899 22.3088 32.5276 22.3088ZM37.8094 9.1674C37.8094 9.94219 37.183 10.5704 36.4105 10.5704C35.638 10.5704 35.0116 9.94219 35.0116 9.1674C35.0116 8.3926 35.638 7.76436 36.4105 7.76436C37.183 7.76436 37.8094 8.3926 37.8094 9.1674Z" fill="url(#paint3_linear_2311_3405)"/>
<path d="M13.8837 44.1025L11.4648 44.2065V46.5263L15.7708 50.4207L15.6694 47.4727L13.8837 44.1025Z" fill="url(#paint4_linear_2311_3405)"/>
<path d="M36.1657 31.1304C35.1185 31.2786 33.3634 31.7893 27.9615 34.1972C27.1256 33.6104 23.6516 31.3763 19.9754 31.3525C14.5521 31.3525 10.7808 35.6718 10.7808 35.6718C10.467 35.3389 9.97428 34.8584 9.30259 34.3727C7.9105 33.3656 6.74665 33.0554 5.12973 32.455C4.15844 32.0943 2.77938 31.5382 1.13696 30.7186C1.79676 32.0949 2.37387 33.1957 2.78617 33.9603C4.00439 36.2165 4.32098 36.5199 4.63644 37.5684C4.71063 37.8144 4.84655 38.3097 5.19656 38.8931C5.57035 39.5162 6.00927 39.9428 6.31736 40.203L9.57444 40.3092C9.18762 39.9638 7.47951 38.4307 6.13726 36.9811C5.81671 36.6346 5.38515 36.1512 5.00683 35.4139C4.75707 34.9282 4.61435 34.4954 4.53166 34.1966C5.63887 34.4125 6.50992 34.7436 7.11421 35.0174C8.07927 35.4548 8.64619 35.7115 9.14401 36.3267C9.31448 36.5375 9.56311 37.0317 10.0536 38.0121C10.1827 38.27 10.642 39.1885 10.7813 39.4674C12.537 41.727 14.573 42.3524 14.9293 42.5722C15.2855 42.792 16.3956 43.1153 16.4369 45.4243C16.4782 47.7333 18.1841 49.5686 18.1841 49.5686C18.1841 49.5686 18.3749 49.8873 18.3075 50.0361C18.2062 50.2599 17.5662 49.9975 16.9234 50.3247C16.7427 50.4167 16.6476 50.5121 16.6159 50.6331C16.5717 50.8052 16.6731 50.9649 16.7104 51.0188C17.2926 51.7953 18.1835 52.1458 18.3959 52.6337C18.205 52.5587 17.488 52.2957 17.2054 52.5877C16.8526 52.953 17.3765 53.9794 17.6636 54.4225C17.8567 54.7207 18.0589 54.9348 18.1971 55.0666H19.9754V34.8283C19.9754 34.8283 22.5416 42.1036 22.5212 42.8926C22.5002 43.6816 21.8631 47.2795 21.0821 48.1866C20.9116 48.4349 20.727 48.7762 20.6194 49.2074C20.5843 49.3482 20.5678 49.4562 20.5577 49.5272C20.4036 50.5877 20.3827 51.321 20.3827 51.321C20.3617 52.0651 20.2898 53.3034 20.1861 54.957H21.5522C21.6428 54.3605 21.8161 53.6318 22.1525 52.8467C22.8865 51.1341 24.0141 50.0475 24.7147 49.4761C25.6565 48.6683 26.5989 47.8606 27.5407 47.0528L27.6461 43.5748L24.8092 43.6821C24.8092 43.6821 22.8718 49.2449 22.0789 49.5823C21.286 49.9191 23.3582 44.6313 23.4426 43.9968C24.4196 43.5691 26.1713 42.6381 27.6461 40.7647C28.5137 39.6628 29.0144 38.579 29.3089 37.7678C29.4839 37.4798 29.9002 36.8828 30.6744 36.4523C31.3806 36.0592 32.0398 35.9967 32.3734 35.9882C32.2652 36.575 32.0874 37.014 31.9492 37.3015C31.448 38.341 30.6964 38.9766 29.3179 40.1195C28.8887 40.4756 28.5239 40.7562 28.2764 40.942C29.5722 40.8778 30.5367 40.8568 31.1926 40.8499C31.5046 40.8465 32.6906 40.8369 32.6906 40.8369C33.5695 39.3634 34.2984 38.0814 34.8653 37.0606C35.8933 35.21 36.2721 34.4306 36.6086 33.4326C36.9393 32.4522 37.1115 31.6109 37.2066 31.0361C36.8657 31.0571 36.5174 31.0815 36.1651 31.1315L36.1657 31.1304ZM25.1241 44.7353L26.8062 44.524V46.5274L23.4426 49.2676L25.1247 44.7353H25.1241ZM26.2619 40.1876C25.3852 41.5873 23.9999 42.0701 23.5468 42.207L21.1308 33.2469C24.6257 34.5692 25.5834 35.4451 25.5834 35.4451C26.1294 35.945 26.689 36.4704 26.8991 37.3418C27.2174 38.6619 26.5004 39.8065 26.2619 40.1871V40.1876ZM35.3275 34.0847C35.0732 34.6527 34.6971 35.4883 34.154 36.4829C33.7168 37.2839 33.1023 38.3143 32.2698 39.4662H31.4282C31.9622 38.9357 32.3485 38.4387 32.6124 38.0626C33.0156 37.4878 33.5497 36.7113 33.8527 35.5798C33.9807 35.1015 34.0322 34.6919 34.0549 34.4096C32.9488 34.3193 32.101 34.5488 31.6326 34.7135C30.4484 35.131 29.7167 35.8325 29.2341 36.3057C28.5285 36.997 28.0793 37.6951 27.8041 38.2018L27.5419 35.9865C28.2764 35.6746 29.387 35.1827 30.7231 34.5073C31.6236 34.0518 31.9753 33.8422 32.7047 33.4894C33.5004 33.1037 34.6643 32.5874 36.1572 32.0892C35.9544 32.6181 35.6792 33.3003 35.328 34.0847H35.3275Z" fill="url(#paint5_linear_2311_3405)"/>
<path d="M28.0142 47.5793C28.0142 47.5793 27.4938 48.0718 26.7411 48.7795C25.8513 49.6162 23.0575 52.2513 22.8559 52.6137C22.5846 53.1017 22.545 53.43 22.263 54.1991C22.0087 54.8932 21.7419 55.4397 21.5516 55.8009L19.9749 55.9043H18.6106C18.6106 55.9043 18.5579 56.0628 18.4395 56.2213C18.4395 56.2213 18.2277 56.4724 17.8749 56.5383C17.3748 56.6314 16.7042 55.5067 16.1209 54.5729C14.2621 51.5975 13.5905 51.0346 13.2976 50.8068C12.9612 50.545 12.7324 50.4194 12.2697 50.0093C11.508 49.3345 10.9926 48.6688 10.6766 48.2138L7.68286 52.85C7.68286 52.85 8.79744 58.3605 9.5739 59.2779C9.95675 59.7294 10.3674 60.1799 10.3674 60.1799C11.6479 61.4699 12.8202 61.951 14.0718 62.6417C14.9055 63.1018 16.0535 63.809 17.3499 64.8639H21.5516L28.6978 60.5423L31.4293 53.53L28.0142 47.5804V47.5793ZM27.8036 49.0573L29.8526 52.6382L24.4938 52.4268L27.8036 49.0573ZM19.4493 59.5943L19.8707 57.0648L21.1308 56.7484V57.0648L20.3963 59.5943H19.4488H19.4493ZM21.0193 64.0203H20.1856V63.6017L23.1844 54.0082L27.3295 60.2265L21.0187 64.0203H21.0193ZM28.1201 59.2779L23.8629 53.3755L30.483 53.7964L28.1201 59.2773V59.2779Z" fill="url(#paint6_linear_2311_3405)"/>
</g>
<defs>
<linearGradient id="paint0_linear_2311_3405" x1="-2.49826" y1="5.55932" x2="14.7636" y2="18.4975" gradientUnits="userSpaceOnUse">
<stop stop-color="#6633CC"/>
<stop offset="1" stop-color="#F5C144"/>
</linearGradient>
<linearGradient id="paint1_linear_2311_3405" x1="6.07497" y1="-4.35855" x2="24.3115" y2="3.53165" gradientUnits="userSpaceOnUse">
<stop stop-color="#6633CC"/>
<stop offset="1" stop-color="#F5C144"/>
</linearGradient>
<linearGradient id="paint2_linear_2311_3405" x1="18.0922" y1="-2.76967" x2="36.209" y2="5.54527" gradientUnits="userSpaceOnUse">
<stop stop-color="#6633CC"/>
<stop offset="1" stop-color="#F5C144"/>
</linearGradient>
<linearGradient id="paint3_linear_2311_3405" x1="23.8331" y1="3.09574" x2="41.7085" y2="14.4707" gradientUnits="userSpaceOnUse">
<stop stop-color="#6633CC"/>
<stop offset="1" stop-color="#F5C144"/>
</linearGradient>
<linearGradient id="paint4_linear_2311_3405" x1="10.6868" y1="43.2121" x2="15.7029" y2="47.3302" gradientUnits="userSpaceOnUse">
<stop stop-color="#6633CC"/>
<stop offset="1" stop-color="#F5C144"/>
</linearGradient>
<linearGradient id="paint5_linear_2311_3405" x1="-5.38059" y1="27.287" x2="11.4279" y2="57.2832" gradientUnits="userSpaceOnUse">
<stop stop-color="#6633CC"/>
<stop offset="1" stop-color="#F5C144"/>
</linearGradient>
<linearGradient id="paint6_linear_2311_3405" x1="3.39203" y1="45.1432" x2="15.777" y2="65.6404" gradientUnits="userSpaceOnUse">
<stop stop-color="#6633CC"/>
<stop offset="1" stop-color="#F5C144"/>
</linearGradient>
<clipPath id="clip0_2311_3405">
<rect width="39.0385" height="64.8639" fill="white"/>
</clipPath>
</defs>
</svg>
